<?xml version="1.0" encoding="UTF-8"?>
<!DOCTYPE svg PUBLIC "-//W3C//DTD SVG 1.0//EN" "http://www.w3.org/TR/2001/REC-SVG-20010904/DTD/svg10.dtd">
<!-- Creator: CorelDRAW 2020 (64 Bit) -->
<svg xmlns="http://www.w3.org/2000/svg" xml:space="preserve" width="135px" height="74px" version="1.0" style="shape-rendering:geometricPrecision; text-rendering:geometricPrecision; image-rendering:optimizeQuality; fill-rule:evenodd; clip-rule:evenodd"
viewBox="0 0 135 74.25"
 xmlns:xlink="http://www.w3.org/1999/xlink"
 xmlns:xodm="http://www.corel.com/coreldraw/odm/2003">
 <defs>
  <style type="text/css">
   <![CDATA[
    .fil4 {fill:#CC75EB}
    .fil0 {fill:white}
    .fil5 {fill:white;fill-rule:nonzero}
    .fil2 {fill:url(#id0);fill-rule:nonzero}
    .fil3 {fill:url(#id1);fill-rule:nonzero}
    .fil1 {fill:url(#id2);fill-rule:nonzero}
   ]]>
  </style>
  <linearGradient id="id0" gradientUnits="userSpaceOnUse" x1="50.91" y1="43.49" x2="96.43" y2="43.49">
   <stop offset="0" style="stop-opacity:1; stop-color:#A400D1"/>
   <stop offset="1" style="stop-opacity:1; stop-color:#F700FB"/>
  </linearGradient>
  <linearGradient id="id1" gradientUnits="userSpaceOnUse" xlink:href="#id0" x1="82.71" y1="43.43" x2="110.99" y2="43.43">
  </linearGradient>
  <linearGradient id="id2" gradientUnits="userSpaceOnUse" x1="29.02" y1="26.46" x2="75.37" y2="26.46">
   <stop offset="0" style="stop-opacity:1; stop-color:fuchsia"/>
   <stop offset="1" style="stop-opacity:1; stop-color:#9900CC"/>
  </linearGradient>
 </defs>
 <g id="Camada_x0020_1">
  <metadata id="CorelCorpID_0Corel-Layer"/>
  <g id="_1211646234816">
   <path class="fil0" d="M57.79 21.64c-0.2,-0.07 -0.37,-0.2 -0.5,-0.38 -0.12,-0.18 -0.2,-0.38 -0.23,-0.59 -0.02,-0.18 -0.01,-0.36 0.02,-0.54 0.03,-0.16 0.08,-0.31 0.14,-0.45 0.08,-0.2 0.19,-0.38 0.32,-0.54 0.12,-0.14 0.25,-0.26 0.39,-0.37 0.12,-0.08 0.25,-0.16 0.38,-0.22 0.15,-0.06 0.31,-0.1 0.47,-0.08 0.27,0.01 0.52,0.08 0.73,0.25 0.17,0.13 0.3,0.3 0.38,0.5 0.08,0.19 0.11,0.4 0.09,0.61 -0.01,0.11 -0.02,0.22 -0.05,0.33l0 0.03c-0.06,0.24 -0.16,0.48 -0.3,0.7 -0.12,0.19 -0.27,0.36 -0.46,0.5 -0.17,0.12 -0.35,0.22 -0.55,0.27 -0.16,0.04 -0.33,0.06 -0.49,0.05 0.04,0.01 0.08,0.03 0.13,0.05 0.34,0.13 0.59,0.43 0.59,0.82 0,0.18 -0.08,0.39 -0.14,0.56 -0.08,0.23 -0.16,0.47 -0.23,0.7 -0.11,0.31 -0.21,0.63 -0.31,0.94 -0.11,0.34 -0.21,0.69 -0.3,1.04 -0.09,0.33 -0.17,0.67 -0.24,1.01 -0.03,0.15 -0.06,0.32 -0.07,0.48 0.14,-0.14 0.26,-0.29 0.38,-0.44 0.19,-0.23 0.35,-0.47 0.51,-0.72 0.04,-0.2 0.09,-0.41 0.15,-0.61 0.13,-0.46 0.31,-0.9 0.53,-1.32 0.22,-0.43 0.49,-0.84 0.8,-1.21 0.3,-0.35 0.64,-0.67 1.02,-0.93 0.39,-0.26 0.82,-0.44 1.31,-0.5 0.43,-0.05 0.88,-0.01 1.26,0.21 0.33,0.2 0.58,0.48 0.72,0.83 0.05,0.13 0.09,0.26 0.12,0.39 0.11,-0.15 0.23,-0.3 0.36,-0.44 0.3,-0.33 0.64,-0.61 1.01,-0.85 0.41,-0.26 0.86,-0.42 1.34,-0.49 0.4,-0.05 0.82,-0.05 1.19,0.11 0.05,-0.03 0.11,-0.06 0.17,-0.09l0.07 -0.03 0.08 -0.02c0.17,-0.03 0.33,-0.03 0.5,-0.02 0.17,0.02 0.34,0.06 0.5,0.13 0.17,0.07 0.32,0.17 0.45,0.3 0.2,0.22 0.3,0.5 0.25,0.79l0 0.06 -0.02 0.04c-0.03,0.1 -0.05,0.21 -0.08,0.31 -0.07,0.25 -0.14,0.5 -0.21,0.75 -0.09,0.34 -0.18,0.68 -0.27,1.02 -0.08,0.3 -0.16,0.61 -0.24,0.91 0.23,-0.43 0.47,-0.86 0.7,-1.3 0.3,-0.53 0.6,-1.07 0.91,-1.59 0.3,-0.5 0.62,-0.98 0.97,-1.44 0.29,-0.39 0.62,-0.77 0.99,-1.09 0.38,-0.32 0.82,-0.55 1.33,-0.54 0.39,0.01 0.75,0.16 1.03,0.45 0.23,0.24 0.38,0.53 0.49,0.84 0.09,0.3 0.16,0.61 0.19,0.92 0.04,0.3 0.05,0.61 0.05,0.91 0,0.28 0,0.55 -0.02,0.82 -0.02,0.22 -0.04,0.44 -0.07,0.65 -0.15,0.93 -0.4,1.84 -0.75,2.71 -0.34,0.84 -0.77,1.64 -1.28,2.38 -0.51,0.73 -1.09,1.39 -1.75,1.97 -0.65,0.57 -1.36,1.07 -2.12,1.47 -0.76,0.4 -1.57,0.7 -2.41,0.9 -0.86,0.2 -1.74,0.27 -2.63,0.23 -0.21,-0.02 -0.43,-0.04 -0.64,-0.06 -0.2,-0.03 -0.4,-0.05 -0.59,-0.09 -0.59,-0.09 -1.18,-0.21 -1.75,-0.38 -0.54,-0.17 -1.08,-0.33 -1.62,-0.52 -0.36,-0.12 -0.73,-0.27 -1.09,-0.42 -0.32,-0.13 -0.66,-0.25 -0.99,-0.34 -0.2,-0.06 -0.4,-0.11 -0.6,-0.17 -0.16,-0.04 -0.32,-0.08 -0.47,-0.12 -0.16,-0.04 -0.31,-0.07 -0.47,-0.11 -0.19,-0.03 -0.38,-0.06 -0.58,-0.08 -0.94,-0.12 -1.89,-0.09 -2.83,0.05 -0.01,0.12 -0.02,0.25 -0.04,0.36 -0.07,0.6 -0.27,1.15 -0.6,1.64 -0.3,0.43 -0.66,0.82 -1.08,1.14 -0.4,0.3 -0.84,0.53 -1.31,0.67 -0.46,0.14 -0.94,0.18 -1.4,0.05 -0.51,-0.14 -0.88,-0.49 -1.1,-0.97 -0.08,-0.17 -0.12,-0.35 -0.14,-0.54 -0.09,0.06 -0.18,0.12 -0.27,0.18l-0.61 0.43 -0.87 -1.23 0.62 -0.44c0.51,-0.37 1.04,-0.72 1.58,-1.05 0.05,-0.1 0.1,-0.19 0.15,-0.28 0.03,-0.04 0.06,-0.09 0.09,-0.14 -0.36,0.03 -0.71,-0.01 -1.03,-0.18 -0.34,-0.17 -0.6,-0.45 -0.76,-0.8 -0.02,-0.03 -0.03,-0.06 -0.04,-0.1 -0.32,0.24 -0.68,0.41 -1.09,0.47 -0.51,0.07 -1.03,0 -1.44,-0.34 -0.34,-0.3 -0.54,-0.7 -0.62,-1.15 -0.06,-0.35 -0.07,-0.73 -0.03,-1.09 -0.12,0.38 -0.23,0.76 -0.35,1.15 -0.15,0.49 -0.31,0.98 -0.47,1.47 -0.07,0.22 -0.15,0.46 -0.21,0.69 -0.01,0.05 -0.04,0.13 -0.05,0.21 0.16,0.02 0.32,0.07 0.47,0.17l0.02 0.01 0.02 0.02c0.3,0.22 0.43,0.58 0.34,0.94 -0.05,0.21 -0.16,0.39 -0.3,0.54 -0.11,0.12 -0.23,0.23 -0.36,0.32 -0.13,0.09 -0.27,0.17 -0.42,0.23 -0.1,0.05 -0.22,0.08 -0.34,0.11 -0.17,0.04 -0.35,0.06 -0.52,0.06 -0.21,0 -0.42,-0.04 -0.62,-0.1 -0.28,-0.09 -0.51,-0.26 -0.68,-0.5 -0.18,-0.23 -0.27,-0.51 -0.32,-0.79 -0.06,-0.34 -0.03,-0.71 0.04,-1.05 0.03,-0.21 0.12,-0.48 0.18,-0.69 0.14,-0.44 0.26,-0.88 0.39,-1.32 0.18,-0.59 0.35,-1.19 0.52,-1.78 0.19,-0.68 0.37,-1.35 0.56,-2.03 0.18,-0.67 0.35,-1.33 0.52,-2.01 0.14,-0.57 0.27,-1.15 0.39,-1.72 -0.05,0.05 -0.09,0.11 -0.13,0.17 -0.37,0.53 -0.71,1.09 -1.04,1.65 -0.38,0.64 -0.75,1.29 -1.11,1.95 -0.35,0.65 -0.7,1.31 -1.04,1.97 -0.28,0.56 -0.56,1.12 -0.84,1.68 -0.21,0.56 -0.43,1.12 -0.66,1.67 -0.1,0.24 -0.24,0.62 -0.38,0.84l-0.01 0.02 -0.01 0.01c-0.12,0.17 -0.27,0.32 -0.43,0.45 -0.16,0.13 -0.34,0.24 -0.52,0.32 -0.22,0.09 -0.44,0.15 -0.68,0.13 -0.44,-0.03 -0.77,-0.34 -0.85,-0.78l-0.01 -0.06 0 -0.07c0,-0.24 0.16,-0.66 0.24,-0.89 0.17,-0.5 0.34,-1 0.52,-1.5 0.23,-0.68 0.47,-1.36 0.71,-2.04 0.27,-0.77 0.54,-1.54 0.81,-2.3 0.26,-0.76 0.52,-1.51 0.77,-2.27 0.03,-0.1 0.07,-0.21 0.1,-0.31 -0.05,0.08 -0.09,0.16 -0.13,0.23 -0.36,0.62 -0.7,1.24 -1.04,1.86 -0.36,0.66 -0.71,1.32 -1.05,1.98 -0.33,0.64 -0.66,1.29 -0.98,1.93 -0.29,0.56 -0.57,1.12 -0.85,1.68 -0.21,0.42 -0.42,0.83 -0.63,1.25 -0.13,0.3 -0.26,0.61 -0.4,0.91 -0.12,0.25 -0.24,0.5 -0.36,0.76 -0.15,0.28 -0.4,0.47 -0.69,0.58 -0.24,0.08 -0.49,0.12 -0.75,0.09 -0.32,-0.04 -0.6,-0.18 -0.81,-0.43 -0.27,-0.33 -0.28,-0.75 -0.14,-1.16 0.06,-0.19 0.14,-0.37 0.2,-0.55 0.15,-0.38 0.29,-0.76 0.44,-1.14 0.19,-0.52 0.38,-1.04 0.57,-1.56 0.22,-0.62 0.43,-1.23 0.64,-1.85 0.21,-0.66 0.42,-1.31 0.62,-1.97 0.19,-0.64 0.37,-1.28 0.53,-1.93 0.14,-0.57 0.26,-1.15 0.36,-1.73 0.07,-0.43 0.12,-0.88 0.11,-1.31 -0.01,-0.14 -0.02,-0.37 -0.08,-0.53 -0.22,0.02 -0.42,0.08 -0.61,0.17 -0.26,0.11 -0.51,0.25 -0.74,0.4 -0.24,0.17 -0.47,0.35 -0.69,0.55 -0.2,0.18 -0.4,0.38 -0.58,0.58 -0.15,0.16 -0.29,0.33 -0.43,0.5 -0.06,0.08 -0.14,0.18 -0.19,0.27 -0.29,0.47 -0.8,0.81 -1.34,0.48 -0.37,-0.23 -0.48,-0.65 -0.42,-1.06 0.04,-0.26 0.16,-0.52 0.29,-0.74 0.16,-0.27 0.34,-0.53 0.54,-0.77 0.23,-0.28 0.48,-0.54 0.74,-0.79 0.29,-0.28 0.6,-0.53 0.93,-0.77 0.33,-0.24 0.69,-0.46 1.06,-0.64 0.38,-0.19 0.78,-0.33 1.2,-0.4 0.62,-0.11 1.25,-0.07 1.79,0.28 0.48,0.31 0.8,0.78 0.98,1.32 0.18,0.56 0.23,1.18 0.21,1.76 0,0.24 -0.02,0.47 -0.04,0.71 0.14,-0.24 0.28,-0.48 0.42,-0.72 0.33,-0.57 0.68,-1.12 1.06,-1.66 0.3,-0.43 0.62,-0.85 0.99,-1.22 0.32,-0.32 0.72,-0.62 1.19,-0.65l0.02 0c0.57,-0.02 1.01,0.32 1.2,0.85 0.14,0.41 0.15,0.87 0.12,1.29 -0.02,0.36 -0.07,0.72 -0.13,1.08 0.13,-0.18 0.27,-0.36 0.42,-0.53 0.32,-0.37 0.68,-0.73 1.08,-1.03 0.38,-0.28 0.82,-0.49 1.3,-0.52 0.66,-0.05 1.13,0.37 1.31,0.98 0.15,0.48 0.15,1.03 0.12,1.53 -0.05,0.65 -0.15,1.29 -0.28,1.92 -0.1,0.48 -0.2,0.96 -0.32,1.43 0.06,-0.14 0.12,-0.28 0.18,-0.42 0.13,-0.3 0.26,-0.61 0.42,-0.9 0.12,-0.24 0.26,-0.5 0.5,-0.65 0.17,-0.11 0.37,-0.17 0.57,-0.2 0.18,-0.02 0.35,-0.03 0.53,-0.01 0.16,0.02 0.32,0.06 0.48,0.13 0.33,0.14 0.57,0.44 0.57,0.81 0,0.21 -0.1,0.43 -0.17,0.62 -0.11,0.25 -0.21,0.51 -0.31,0.76 -0.14,0.34 -0.27,0.68 -0.39,1.02 -0.14,0.38 -0.28,0.76 -0.41,1.15 -0.12,0.36 -0.23,0.73 -0.33,1.1 -0.03,0.1 -0.06,0.21 -0.08,0.32 0.05,-0.07 0.09,-0.14 0.14,-0.21 0.19,-0.3 0.36,-0.62 0.52,-0.94 0.16,-0.35 0.33,-0.7 0.5,-1.05 0.16,-0.43 0.34,-0.86 0.54,-1.28 0.14,-0.28 0.33,-0.68 0.6,-0.86l0.03 -0.02 0.03 -0.02c0.16,-0.09 0.34,-0.14 0.53,-0.16 0.16,-0.02 0.33,-0.03 0.5,-0.02 0.17,0.02 0.33,0.05 0.49,0.12 0.35,0.13 0.6,0.43 0.6,0.82 0,0.23 -0.15,0.55 -0.24,0.77 -0.14,0.33 -0.27,0.66 -0.4,1 -0.15,0.42 -0.3,0.85 -0.45,1.28 -0.12,0.36 -0.23,0.73 -0.3,1.11 0.08,-0.1 0.17,-0.2 0.24,-0.31 0.19,-0.27 0.37,-0.55 0.53,-0.84 0.18,-0.32 0.35,-0.65 0.51,-0.98 0.09,-0.18 0.17,-0.36 0.26,-0.55 0,-0.35 0.02,-0.7 0.06,-1.05 0.05,-0.44 0.14,-0.87 0.28,-1.29 0.13,-0.35 0.3,-0.67 0.53,-0.97 0.2,-0.27 0.44,-0.53 0.71,-0.74 0.25,-0.21 0.53,-0.39 0.83,-0.52 0.3,-0.12 0.6,-0.2 0.92,-0.2 0.37,0 0.71,0.12 0.98,0.36 0.3,0.26 0.45,0.62 0.51,1l0.01 0.06 0 0.06c0,0.18 -0.06,0.35 -0.14,0.52 -0.06,0.11 -0.14,0.22 -0.22,0.31 -0.11,0.14 -0.24,0.25 -0.4,0.32 -0.33,0.16 -0.72,0.09 -0.96,-0.15 0,0 -0.01,0 -0.01,0 -0.11,0.17 -0.19,0.36 -0.26,0.54l0 0.02c-0.08,0.19 -0.11,0.4 -0.13,0.6 -0.04,0.32 -0.05,0.63 -0.06,0.95 -0.01,0.27 0,0.54 0,0.8 0.38,-0.32 0.74,-0.66 1.08,-1.01 0.34,-0.34 0.67,-0.71 0.97,-1.09 0.04,-0.05 0.08,-0.1 0.12,-0.15 0.1,-0.35 0.22,-0.7 0.35,-1.05 0.11,-0.29 0.23,-0.58 0.36,-0.85 0.12,-0.25 0.25,-0.52 0.49,-0.66 0.17,-0.11 0.37,-0.18 0.57,-0.2 0.18,-0.03 0.35,-0.03 0.52,-0.01 0.01,0 0.01,0 0.01,0zm4.92 4.28c-0.11,-0.01 -0.23,-0.04 -0.33,-0.1 -0.41,-0.21 -0.54,-0.65 -0.41,-1.07 0.02,-0.09 0.05,-0.19 0.08,-0.28 0.03,-0.13 0.06,-0.25 0.08,-0.38 0.02,-0.13 0.04,-0.26 0.04,-0.4 -0.06,0.09 -0.12,0.17 -0.17,0.26 -0.16,0.24 -0.29,0.51 -0.4,0.78 -0.13,0.29 -0.24,0.6 -0.32,0.91 -0.09,0.28 -0.15,0.57 -0.18,0.87 -0.03,0.2 -0.04,0.43 -0.01,0.64 0,0.02 0.01,0.06 0.02,0.1 0.18,-0.04 0.37,-0.16 0.51,-0.26 0.31,-0.23 0.6,-0.51 0.86,-0.8 0.08,-0.09 0.16,-0.17 0.23,-0.27zm3.95 3.15c-0.06,0.05 -0.12,0.09 -0.17,0.13 -0.25,0.16 -0.51,0.28 -0.8,0.34 -0.32,0.07 -0.66,0.07 -0.98,0.02 -0.42,-0.07 -0.8,-0.26 -1.11,-0.55 -0.21,-0.2 -0.37,-0.45 -0.49,-0.72 -0.19,0.17 -0.38,0.33 -0.58,0.48 -0.42,0.32 -0.89,0.56 -1.42,0.62 -0.52,0.06 -1.07,0.03 -1.55,-0.23 -0.25,-0.13 -0.46,-0.3 -0.64,-0.51 -0.11,0.11 -0.23,0.22 -0.35,0.32 -0.39,0.32 -0.83,0.57 -1.32,0.63 -0.49,0.07 -1,0.02 -1.41,-0.27 -0.36,-0.26 -0.6,-0.62 -0.73,-1.05 -0.05,-0.18 -0.09,-0.36 -0.11,-0.55 -0.13,0.12 -0.26,0.23 -0.4,0.34 -0.38,0.34 -0.77,0.67 -1.15,1 0.01,0.28 0.02,0.56 0.03,0.85 0.21,-0.03 0.42,-0.05 0.63,-0.07 0.63,-0.06 1.26,-0.07 1.89,-0.04 0.6,0.04 1.19,0.12 1.79,0.28 0.19,0.06 0.39,0.11 0.59,0.16 0.23,0.06 0.45,0.12 0.67,0.2 0.43,0.14 0.86,0.3 1.29,0.45 0.42,0.15 0.83,0.29 1.26,0.43 0.41,0.14 0.84,0.26 1.26,0.37 0.43,0.11 0.86,0.2 1.29,0.26 0.35,0.06 0.7,0.09 1.05,0.11 0.35,0.02 0.71,0.02 1.06,-0.01 0.36,-0.02 0.72,-0.07 1.07,-0.14 0.37,-0.08 0.74,-0.19 1.09,-0.33 0.65,-0.24 1.27,-0.57 1.83,-0.98 0.56,-0.4 1.07,-0.87 1.53,-1.39 0.46,-0.52 0.87,-1.09 1.2,-1.7 0.34,-0.61 0.63,-1.26 0.84,-1.92 0.12,-0.37 0.22,-0.74 0.31,-1.11 0.09,-0.38 0.15,-0.76 0.19,-1.15 0.04,-0.36 0.06,-0.73 0.04,-1.09 -0.01,-0.26 -0.04,-0.53 -0.12,-0.79 -0.06,0.04 -0.11,0.09 -0.16,0.13 -0.17,0.16 -0.33,0.34 -0.47,0.53 -0.22,0.33 -0.42,0.69 -0.6,1.04 -0.27,0.51 -0.53,1.01 -0.79,1.52 -0.28,0.57 -0.58,1.13 -0.87,1.69 -0.29,0.56 -0.6,1.11 -0.94,1.65 -0.29,0.47 -0.62,0.93 -0.98,1.35 -0.32,0.36 -0.7,0.71 -1.16,0.89l-0.06 0.03 -0.07 0.01c-0.44,0.09 -0.86,-0.05 -1.14,-0.41 -0.18,-0.24 -0.29,-0.52 -0.34,-0.82zm-15.99 3.26c-0.2,0.08 -0.4,0.17 -0.59,0.26 -0.09,0.17 -0.17,0.35 -0.21,0.54 -0.01,0.03 -0.02,0.1 -0.03,0.17 0.1,-0.04 0.2,-0.12 0.28,-0.19 0.17,-0.15 0.31,-0.34 0.42,-0.53 0.05,-0.08 0.09,-0.16 0.13,-0.25zm16.26 -6.89c0.08,-0.4 0.17,-0.79 0.26,-1.19 0.09,-0.36 0.18,-0.71 0.28,-1.07 0,-0.02 0,-0.05 -0.01,-0.08 -0.06,0 -0.14,0.02 -0.17,0.02 -0.08,0.03 -0.21,0.16 -0.26,0.22 -0.23,0.23 -0.42,0.5 -0.6,0.78 -0.2,0.33 -0.37,0.67 -0.52,1.02 -0.12,0.28 -0.23,0.58 -0.28,0.89 -0.01,0.11 -0.03,0.22 -0.05,0.32 -0.02,0.15 -0.04,0.29 -0.05,0.44 -0.01,0.16 -0.01,0.32 0,0.49 0,0.08 0.01,0.17 0.03,0.25 0.06,-0.03 0.11,-0.08 0.15,-0.11 0.19,-0.2 0.36,-0.42 0.51,-0.65 0.16,-0.25 0.31,-0.5 0.44,-0.77 0.08,-0.19 0.17,-0.37 0.27,-0.56z"/>
   <path class="fil1" d="M43.71 19.34c0.26,-0.02 0.44,0.13 0.53,0.44 0.09,0.32 0.12,0.74 0.08,1.27 -0.03,0.53 -0.12,1.14 -0.26,1.82 -0.14,0.69 -0.3,1.39 -0.49,2.12 -0.18,0.72 -0.38,1.44 -0.59,2.16 -0.21,0.71 -0.41,1.36 -0.58,1.94 -0.18,0.58 -0.34,1.07 -0.47,1.47 -0.12,0.39 -0.2,0.64 -0.22,0.73 -0.1,0.37 -0.13,0.64 -0.09,0.8 0.04,0.15 0.11,0.25 0.21,0.3 0.1,0.04 0.21,0.06 0.34,0.05 0.12,0 0.22,0.01 0.28,0.05 0.05,0.05 0.07,0.1 0.06,0.16 -0.02,0.07 -0.06,0.14 -0.13,0.22 -0.06,0.07 -0.14,0.14 -0.24,0.2 -0.09,0.07 -0.17,0.12 -0.25,0.15 -0.06,0.02 -0.14,0.05 -0.25,0.07 -0.11,0.03 -0.22,0.04 -0.35,0.04 -0.12,0.01 -0.25,-0.02 -0.37,-0.06 -0.13,-0.04 -0.24,-0.12 -0.32,-0.23 -0.08,-0.11 -0.14,-0.27 -0.18,-0.47 -0.04,-0.21 -0.02,-0.47 0.04,-0.79 0.01,-0.05 0.07,-0.26 0.17,-0.6 0.1,-0.35 0.23,-0.79 0.39,-1.33 0.15,-0.53 0.33,-1.12 0.51,-1.79 0.19,-0.66 0.38,-1.34 0.57,-2.03 0.18,-0.69 0.36,-1.36 0.52,-2.02 0.17,-0.66 0.3,-1.25 0.4,-1.77 0.1,-0.52 0.16,-0.95 0.18,-1.29 0.03,-0.34 -0.01,-0.53 -0.1,-0.56 -0.16,-0.07 -0.38,0.04 -0.65,0.31 -0.27,0.27 -0.58,0.65 -0.92,1.14 -0.34,0.49 -0.69,1.05 -1.07,1.69 -0.38,0.64 -0.76,1.3 -1.12,1.98 -0.37,0.67 -0.72,1.34 -1.05,1.99 -0.33,0.65 -0.62,1.22 -0.87,1.72 -0.25,0.68 -0.47,1.24 -0.66,1.68 -0.18,0.43 -0.29,0.68 -0.32,0.73 -0.07,0.1 -0.17,0.2 -0.28,0.29 -0.12,0.09 -0.23,0.16 -0.35,0.22 -0.12,0.05 -0.23,0.07 -0.32,0.06 -0.09,0 -0.15,-0.05 -0.16,-0.15 0,-0.04 0.06,-0.26 0.19,-0.65 0.14,-0.39 0.31,-0.89 0.52,-1.49 0.21,-0.6 0.45,-1.28 0.72,-2.04 0.26,-0.76 0.53,-1.53 0.81,-2.3 0.27,-0.78 0.52,-1.54 0.77,-2.28 0.24,-0.75 0.45,-1.41 0.61,-1.98 0.17,-0.58 0.29,-1.04 0.35,-1.38 0.06,-0.35 0.05,-0.52 -0.05,-0.51 -0.14,0.03 -0.33,0.19 -0.57,0.47 -0.23,0.29 -0.5,0.66 -0.79,1.12 -0.3,0.46 -0.62,0.99 -0.96,1.59 -0.34,0.59 -0.69,1.22 -1.05,1.87 -0.35,0.66 -0.7,1.32 -1.05,2 -0.35,0.67 -0.68,1.31 -0.99,1.93 -0.31,0.61 -0.59,1.17 -0.85,1.68 -0.25,0.51 -0.46,0.93 -0.63,1.27 -0.15,0.33 -0.28,0.64 -0.41,0.91 -0.13,0.28 -0.24,0.52 -0.35,0.73 -0.04,0.1 -0.14,0.17 -0.27,0.22 -0.14,0.05 -0.27,0.06 -0.4,0.05 -0.13,-0.02 -0.24,-0.07 -0.31,-0.16 -0.08,-0.09 -0.09,-0.23 -0.02,-0.42 0.02,-0.07 0.09,-0.25 0.2,-0.55 0.11,-0.29 0.26,-0.67 0.43,-1.13 0.18,-0.46 0.37,-0.99 0.58,-1.58 0.21,-0.59 0.43,-1.21 0.64,-1.86 0.22,-0.66 0.43,-1.32 0.63,-1.99 0.21,-0.68 0.39,-1.33 0.54,-1.97 0.16,-0.63 0.28,-1.23 0.37,-1.79 0.09,-0.56 0.13,-1.04 0.12,-1.45 -0.01,-0.41 -0.08,-0.73 -0.21,-0.96 -0.14,-0.22 -0.35,-0.33 -0.63,-0.31 -0.31,0.03 -0.61,0.1 -0.91,0.23 -0.3,0.13 -0.58,0.29 -0.86,0.48 -0.27,0.19 -0.53,0.39 -0.77,0.61 -0.24,0.22 -0.45,0.43 -0.63,0.63 -0.19,0.21 -0.34,0.39 -0.47,0.55 -0.12,0.16 -0.2,0.27 -0.24,0.34 -0.12,0.19 -0.22,0.27 -0.29,0.23 -0.07,-0.05 -0.09,-0.15 -0.07,-0.31 0.02,-0.12 0.08,-0.28 0.2,-0.48 0.11,-0.2 0.27,-0.42 0.46,-0.66 0.2,-0.23 0.43,-0.47 0.69,-0.72 0.26,-0.25 0.54,-0.49 0.84,-0.71 0.3,-0.22 0.62,-0.41 0.95,-0.57 0.33,-0.17 0.67,-0.28 1,-0.34 0.52,-0.09 0.94,-0.03 1.25,0.17 0.31,0.2 0.53,0.51 0.67,0.93 0.13,0.41 0.19,0.91 0.18,1.5 -0.02,0.6 -0.09,1.24 -0.21,1.93 -0.12,0.69 -0.28,1.41 -0.49,2.17 -0.21,0.75 -0.43,1.5 -0.68,2.24 0.31,-0.63 0.64,-1.29 1,-1.98 0.35,-0.7 0.71,-1.38 1.08,-2.05 0.36,-0.67 0.72,-1.31 1.08,-1.92 0.36,-0.6 0.7,-1.14 1.03,-1.61 0.33,-0.47 0.63,-0.84 0.9,-1.11 0.28,-0.28 0.51,-0.42 0.7,-0.43 0.23,-0.01 0.38,0.1 0.46,0.34 0.09,0.24 0.12,0.57 0.09,0.99 -0.03,0.42 -0.1,0.91 -0.22,1.48 -0.12,0.56 -0.27,1.17 -0.45,1.81 -0.17,0.64 -0.37,1.29 -0.59,1.97 -0.22,0.68 -0.44,1.34 -0.66,1.98 0.24,-0.52 0.49,-1.06 0.77,-1.62 0.27,-0.56 0.56,-1.12 0.87,-1.66 0.3,-0.55 0.61,-1.07 0.93,-1.56 0.32,-0.5 0.64,-0.93 0.96,-1.31 0.33,-0.37 0.64,-0.68 0.96,-0.91 0.31,-0.23 0.61,-0.36 0.91,-0.38zm-7.02 11.44c0.02,-0.03 0.03,-0.05 0.04,-0.08 0.01,-0.03 0.02,-0.07 0.03,-0.11 -0.03,0.07 -0.05,0.12 -0.07,0.16 -0.01,0.04 -0.01,0.05 0,0.03zm9.29 -7.66c0.07,-0.05 0.16,-0.08 0.28,-0.09 0.11,-0.02 0.22,-0.02 0.32,-0.01 0.11,0.02 0.2,0.04 0.28,0.07 0.08,0.03 0.11,0.08 0.11,0.12 0,0.03 -0.04,0.14 -0.12,0.34 -0.08,0.2 -0.18,0.45 -0.3,0.76 -0.12,0.31 -0.26,0.65 -0.4,1.04 -0.15,0.39 -0.28,0.77 -0.42,1.17 -0.13,0.39 -0.24,0.77 -0.34,1.14 -0.1,0.38 -0.17,0.7 -0.2,0.98 -0.03,0.28 -0.02,0.5 0.04,0.66 0.06,0.16 0.18,0.23 0.37,0.19 0.21,-0.03 0.42,-0.15 0.63,-0.35 0.2,-0.21 0.4,-0.47 0.59,-0.77 0.19,-0.3 0.38,-0.64 0.55,-1.01 0.18,-0.37 0.36,-0.73 0.53,-1.08 0.18,-0.49 0.35,-0.9 0.52,-1.24 0.17,-0.34 0.28,-0.53 0.34,-0.57 0.07,-0.04 0.16,-0.07 0.27,-0.08 0.11,-0.02 0.22,-0.02 0.33,-0.01 0.11,0.01 0.2,0.03 0.28,0.06 0.08,0.03 0.12,0.07 0.12,0.12 0,0.03 -0.06,0.19 -0.18,0.47 -0.12,0.28 -0.25,0.63 -0.4,1.04 -0.16,0.4 -0.31,0.84 -0.46,1.29 -0.16,0.46 -0.27,0.88 -0.35,1.27 -0.07,0.38 -0.08,0.69 -0.03,0.92 0.05,0.24 0.19,0.33 0.44,0.29 0.2,-0.03 0.4,-0.13 0.61,-0.31 0.2,-0.18 0.4,-0.41 0.59,-0.68 0.2,-0.27 0.39,-0.57 0.58,-0.91 0.19,-0.33 0.36,-0.67 0.53,-1.02 0.17,-0.35 0.32,-0.69 0.46,-1.02 0.14,-0.33 0.26,-0.62 0.37,-0.88 0.02,-0.05 0.06,-0.09 0.11,-0.12 0.04,-0.03 0.09,-0.06 0.14,-0.07 0.05,-0.01 0.09,-0.01 0.12,0 0.03,0.01 0.05,0.04 0.05,0.09 0,0.02 -0.03,0.12 -0.09,0.28 -0.05,0.17 -0.13,0.38 -0.24,0.64 -0.1,0.27 -0.22,0.56 -0.37,0.89 -0.14,0.32 -0.3,0.66 -0.48,1 -0.17,0.34 -0.36,0.67 -0.56,1 -0.21,0.33 -0.42,0.62 -0.65,0.89 -0.22,0.27 -0.45,0.49 -0.68,0.66 -0.23,0.18 -0.46,0.28 -0.7,0.31 -0.32,0.05 -0.58,0.03 -0.77,-0.07 -0.19,-0.11 -0.33,-0.25 -0.43,-0.45 -0.09,-0.2 -0.14,-0.44 -0.14,-0.72 -0.01,-0.29 0.01,-0.59 0.06,-0.91 -0.27,0.41 -0.56,0.76 -0.87,1.05 -0.31,0.29 -0.63,0.46 -0.97,0.51 -0.36,0.05 -0.64,0 -0.83,-0.17 -0.2,-0.16 -0.32,-0.4 -0.38,-0.7 -0.05,-0.31 -0.05,-0.67 0,-1.07 0.05,-0.41 0.14,-0.84 0.26,-1.27 0.12,-0.44 0.25,-0.88 0.4,-1.3 0.15,-0.43 0.3,-0.82 0.45,-1.16 0.15,-0.35 0.28,-0.63 0.4,-0.85 0.11,-0.22 0.19,-0.34 0.23,-0.36zm5.75 0.83c0.09,-0.27 0.23,-0.53 0.41,-0.76 0.18,-0.24 0.37,-0.45 0.59,-0.62 0.21,-0.17 0.42,-0.31 0.65,-0.4 0.22,-0.1 0.43,-0.14 0.62,-0.14 0.19,0 0.35,0.06 0.49,0.17 0.13,0.12 0.21,0.3 0.25,0.55 0,0.04 -0.02,0.09 -0.05,0.16 -0.04,0.07 -0.08,0.13 -0.13,0.19 -0.04,0.05 -0.09,0.09 -0.15,0.12 -0.05,0.02 -0.09,0.01 -0.11,-0.03 -0.11,-0.2 -0.23,-0.33 -0.37,-0.36 -0.13,-0.04 -0.26,-0.02 -0.4,0.08 -0.13,0.09 -0.26,0.24 -0.39,0.43 -0.13,0.2 -0.24,0.43 -0.34,0.7 -0.08,0.22 -0.14,0.48 -0.18,0.79 -0.03,0.31 -0.05,0.65 -0.06,1.01 0,0.37 0,0.76 0.02,1.17 0.02,0.41 0.04,0.82 0.07,1.23 0.38,-0.33 0.77,-0.66 1.16,-1 0.39,-0.34 0.77,-0.69 1.13,-1.06 0.36,-0.36 0.7,-0.75 1.02,-1.15 0.32,-0.4 0.61,-0.82 0.85,-1.26 0.04,-0.07 0.09,-0.12 0.15,-0.15 0.06,-0.03 0.12,-0.03 0.16,-0.01 0.04,0.02 0.07,0.07 0.09,0.14 0.01,0.07 0,0.17 -0.05,0.3 -0.12,0.34 -0.33,0.7 -0.63,1.07 -0.31,0.38 -0.66,0.77 -1.07,1.17 -0.42,0.39 -0.86,0.8 -1.35,1.21 -0.48,0.41 -0.96,0.83 -1.44,1.24 0.03,0.57 0.06,1.12 0.07,1.66 0.01,0.53 -0.01,1 -0.07,1.42 -0.05,0.47 -0.21,0.9 -0.48,1.29 -0.26,0.39 -0.56,0.71 -0.91,0.97 -0.34,0.25 -0.7,0.44 -1.07,0.55 -0.37,0.11 -0.69,0.12 -0.97,0.04 -0.28,-0.08 -0.49,-0.26 -0.62,-0.55 -0.13,-0.29 -0.13,-0.71 0.02,-1.26 0.09,-0.34 0.22,-0.66 0.4,-0.97 0.19,-0.32 0.41,-0.63 0.67,-0.93 0.26,-0.31 0.55,-0.61 0.86,-0.91 0.32,-0.3 0.65,-0.6 1,-0.9 -0.03,-0.45 -0.06,-0.91 -0.1,-1.38 -0.03,-0.47 -0.05,-0.94 -0.05,-1.39 0,-0.46 0.02,-0.89 0.06,-1.31 0.04,-0.41 0.13,-0.79 0.25,-1.12zm-0.14 7.99c0.07,-0.26 0.1,-0.59 0.09,-0.97 -0.01,-0.39 -0.03,-0.82 -0.06,-1.28 -0.31,0.28 -0.61,0.57 -0.88,0.84 -0.28,0.28 -0.52,0.56 -0.74,0.84 -0.22,0.28 -0.41,0.55 -0.56,0.82 -0.15,0.26 -0.26,0.52 -0.31,0.78 -0.07,0.3 -0.06,0.54 0,0.72 0.07,0.18 0.18,0.3 0.34,0.35 0.16,0.06 0.33,0.06 0.54,0 0.2,-0.06 0.41,-0.18 0.61,-0.36 0.2,-0.18 0.39,-0.42 0.57,-0.71 0.17,-0.29 0.31,-0.63 0.4,-1.03zm5.5 -9.45c0.07,-0.05 0.16,-0.08 0.27,-0.1 0.12,-0.01 0.23,-0.01 0.33,0 0.11,0.01 0.21,0.04 0.28,0.07 0.08,0.03 0.12,0.07 0.12,0.12 0,0.02 -0.03,0.13 -0.09,0.31 -0.06,0.19 -0.14,0.42 -0.24,0.71 -0.1,0.28 -0.2,0.6 -0.31,0.95 -0.11,0.35 -0.22,0.71 -0.31,1.08 -0.1,0.36 -0.18,0.71 -0.25,1.05 -0.07,0.34 -0.1,0.64 -0.1,0.9 0,0.26 0.04,0.46 0.11,0.6 0.08,0.14 0.21,0.2 0.39,0.16 0.19,-0.02 0.4,-0.13 0.61,-0.31 0.21,-0.19 0.42,-0.42 0.64,-0.69 0.21,-0.27 0.42,-0.58 0.63,-0.91 0.21,-0.33 0.41,-0.67 0.59,-1 0.19,-0.34 0.37,-0.67 0.53,-0.98 0.16,-0.31 0.31,-0.58 0.43,-0.81 0.04,-0.09 0.11,-0.14 0.2,-0.13 0.09,0 0.13,0.05 0.12,0.15 0,0.03 -0.05,0.17 -0.16,0.42 -0.1,0.26 -0.24,0.57 -0.43,0.94 -0.18,0.37 -0.4,0.77 -0.65,1.2 -0.25,0.43 -0.52,0.83 -0.81,1.2 -0.28,0.38 -0.59,0.7 -0.91,0.97 -0.32,0.27 -0.63,0.42 -0.94,0.46 -0.37,0.05 -0.66,0.01 -0.86,-0.14 -0.21,-0.15 -0.36,-0.36 -0.44,-0.64 -0.09,-0.29 -0.12,-0.62 -0.1,-0.99 0.02,-0.38 0.07,-0.77 0.15,-1.18 0.08,-0.41 0.18,-0.81 0.3,-1.2 0.12,-0.4 0.24,-0.75 0.36,-1.07 0.12,-0.32 0.23,-0.59 0.33,-0.8 0.1,-0.21 0.17,-0.32 0.21,-0.34zm1.64 -3.27c0.13,0 0.24,0.03 0.31,0.09 0.07,0.06 0.12,0.12 0.16,0.2 0.03,0.08 0.04,0.16 0.03,0.25 -0.01,0.09 -0.02,0.17 -0.03,0.24 -0.05,0.19 -0.12,0.35 -0.2,0.48 -0.09,0.12 -0.18,0.22 -0.28,0.3 -0.1,0.07 -0.2,0.12 -0.3,0.15 -0.1,0.02 -0.19,0.03 -0.27,0.03 -0.11,-0.02 -0.19,-0.06 -0.24,-0.14 -0.05,-0.07 -0.08,-0.15 -0.1,-0.25 -0.01,-0.09 0,-0.19 0.02,-0.3 0.02,-0.11 0.05,-0.2 0.09,-0.3 0.05,-0.13 0.12,-0.25 0.2,-0.35 0.09,-0.1 0.17,-0.18 0.26,-0.24 0.08,-0.06 0.15,-0.1 0.22,-0.13 0.06,-0.02 0.11,-0.03 0.13,-0.03zm3.6 3.11c0.35,-0.04 0.61,0 0.8,0.11 0.2,0.12 0.33,0.27 0.41,0.47 0.08,0.19 0.12,0.41 0.11,0.65 0,0.24 -0.02,0.47 -0.06,0.68 -0.04,0.22 -0.09,0.4 -0.14,0.55 -0.06,0.15 -0.1,0.23 -0.11,0.24 -0.03,0.02 -0.09,0.04 -0.17,0.07 -0.08,0.04 -0.16,0.06 -0.25,0.07 -0.08,0.01 -0.15,0.01 -0.2,-0.02 -0.05,-0.03 -0.06,-0.09 -0.03,-0.18 0.02,-0.05 0.05,-0.15 0.09,-0.29 0.03,-0.14 0.07,-0.3 0.1,-0.47 0.02,-0.18 0.04,-0.36 0.05,-0.54 0.01,-0.19 0,-0.35 -0.03,-0.51 -0.03,-0.15 -0.09,-0.27 -0.17,-0.37 -0.09,-0.09 -0.21,-0.14 -0.37,-0.13 -0.16,0.01 -0.33,0.09 -0.5,0.25 -0.17,0.17 -0.34,0.38 -0.5,0.64 -0.17,0.26 -0.32,0.55 -0.46,0.88 -0.14,0.33 -0.26,0.66 -0.35,1 -0.1,0.34 -0.17,0.66 -0.2,0.98 -0.04,0.32 -0.05,0.6 -0.01,0.85 0.04,0.24 0.11,0.43 0.24,0.57 0.12,0.14 0.3,0.2 0.53,0.18 0.3,-0.03 0.62,-0.16 0.96,-0.41 0.33,-0.25 0.66,-0.55 0.97,-0.9 0.32,-0.35 0.62,-0.73 0.91,-1.14 0.29,-0.41 0.54,-0.79 0.76,-1.14 0.22,-0.36 0.39,-0.65 0.52,-0.89 0.13,-0.24 0.19,-0.36 0.2,-0.38 0.03,-0.06 0.06,-0.12 0.12,-0.15 0.05,-0.04 0.1,-0.06 0.15,-0.06 0.04,0 0.08,0.01 0.11,0.04 0.03,0.03 0.03,0.08 0.02,0.14 -0.01,0.04 -0.09,0.21 -0.24,0.49 -0.14,0.28 -0.34,0.62 -0.59,1.02 -0.25,0.39 -0.53,0.82 -0.85,1.27 -0.32,0.46 -0.65,0.88 -1,1.27 -0.35,0.39 -0.71,0.73 -1.08,1 -0.36,0.28 -0.71,0.43 -1.04,0.47 -0.47,0.05 -0.83,0.01 -1.11,-0.14 -0.28,-0.15 -0.48,-0.36 -0.6,-0.63 -0.13,-0.27 -0.19,-0.59 -0.18,-0.96 0,-0.37 0.07,-0.76 0.18,-1.16 0.12,-0.4 0.28,-0.79 0.48,-1.18 0.2,-0.4 0.44,-0.75 0.71,-1.07 0.26,-0.32 0.55,-0.58 0.86,-0.79 0.32,-0.21 0.63,-0.34 0.96,-0.38zm10.67 -0.65c-0.19,0.28 -0.41,0.66 -0.66,1.13 -0.25,0.47 -0.51,0.98 -0.79,1.53 -0.28,0.55 -0.57,1.11 -0.87,1.68 -0.3,0.57 -0.6,1.1 -0.91,1.59 -0.31,0.49 -0.61,0.91 -0.91,1.26 -0.31,0.35 -0.59,0.58 -0.87,0.69 -0.16,0.03 -0.29,-0.01 -0.39,-0.13 -0.1,-0.13 -0.16,-0.3 -0.2,-0.52 -0.04,-0.23 -0.06,-0.49 -0.05,-0.81 0.01,-0.31 0.03,-0.64 0.07,-1.01 -0.1,0.16 -0.23,0.34 -0.37,0.52 -0.15,0.19 -0.3,0.37 -0.47,0.53 -0.17,0.17 -0.34,0.31 -0.52,0.43 -0.18,0.12 -0.35,0.2 -0.52,0.23 -0.22,0.05 -0.45,0.05 -0.72,0.01 -0.26,-0.04 -0.49,-0.16 -0.7,-0.35 -0.2,-0.19 -0.35,-0.47 -0.44,-0.85 -0.09,-0.38 -0.07,-0.88 0.05,-1.51 0.02,-0.09 0.06,-0.24 0.13,-0.47 0.08,-0.22 0.18,-0.47 0.3,-0.76 0.13,-0.28 0.29,-0.58 0.47,-0.9 0.18,-0.32 0.4,-0.62 0.65,-0.89 0.25,-0.28 0.54,-0.52 0.85,-0.72 0.32,-0.2 0.67,-0.32 1.05,-0.38 0.35,-0.05 0.63,-0.02 0.83,0.08 0.21,0.1 0.36,0.24 0.46,0.41 0.06,-0.15 0.11,-0.28 0.15,-0.37 0.05,-0.09 0.08,-0.15 0.1,-0.16 0.09,-0.01 0.19,-0.02 0.29,-0.01 0.1,0.01 0.19,0.04 0.27,0.07 0.08,0.04 0.15,0.08 0.2,0.13 0.05,0.05 0.07,0.1 0.06,0.15 -0.01,0.03 -0.04,0.14 -0.09,0.33 -0.05,0.2 -0.12,0.45 -0.2,0.75 -0.09,0.31 -0.18,0.65 -0.28,1.03 -0.1,0.37 -0.2,0.76 -0.3,1.15 -0.1,0.39 -0.19,0.78 -0.27,1.15 -0.08,0.38 -0.14,0.71 -0.19,1.01 -0.05,0.3 -0.07,0.54 -0.07,0.72 0,0.18 0.03,0.28 0.09,0.3 0.11,0.02 0.25,-0.08 0.42,-0.32 0.17,-0.23 0.37,-0.54 0.6,-0.93 0.22,-0.39 0.47,-0.84 0.74,-1.35 0.26,-0.51 0.54,-1.03 0.84,-1.56 0.29,-0.54 0.59,-1.06 0.89,-1.57 0.31,-0.52 0.62,-0.97 0.92,-1.38 0.3,-0.4 0.6,-0.72 0.88,-0.97 0.29,-0.24 0.56,-0.36 0.82,-0.35 0.2,0 0.37,0.07 0.5,0.21 0.14,0.15 0.24,0.33 0.32,0.56 0.07,0.23 0.13,0.48 0.16,0.76 0.03,0.28 0.05,0.56 0.05,0.83 0,0.28 -0.01,0.54 -0.03,0.77 -0.01,0.24 -0.03,0.43 -0.06,0.58 -0.14,0.89 -0.37,1.74 -0.7,2.55 -0.33,0.8 -0.73,1.55 -1.2,2.23 -0.48,0.68 -1.02,1.3 -1.63,1.84 -0.61,0.54 -1.27,0.99 -1.97,1.36 -0.7,0.37 -1.45,0.65 -2.23,0.83 -0.79,0.19 -1.59,0.26 -2.42,0.21 -0.2,-0.01 -0.39,-0.03 -0.59,-0.05 -0.19,-0.03 -0.38,-0.05 -0.57,-0.08 -0.56,-0.09 -1.11,-0.21 -1.64,-0.37 -0.53,-0.16 -1.06,-0.32 -1.59,-0.5 -0.35,-0.13 -0.7,-0.26 -1.05,-0.4 -0.34,-0.15 -0.71,-0.27 -1.08,-0.38 -0.23,-0.06 -0.43,-0.12 -0.6,-0.17 -0.17,-0.04 -0.33,-0.09 -0.49,-0.13 -0.16,-0.04 -0.33,-0.07 -0.5,-0.11 -0.18,-0.03 -0.39,-0.06 -0.64,-0.09 -1.54,-0.18 -3.08,-0.05 -4.63,0.41 -1.55,0.46 -3.1,1.22 -4.66,2.3 0.55,-0.39 1.11,-0.76 1.66,-1.1 0.56,-0.34 1.14,-0.63 1.77,-0.88 0.58,-0.23 1.18,-0.42 1.8,-0.57 0.63,-0.15 1.24,-0.25 1.85,-0.3 0.61,-0.05 1.21,-0.06 1.79,-0.03 0.58,0.03 1.12,0.11 1.62,0.25 0.21,0.06 0.41,0.11 0.62,0.16 0.2,0.05 0.4,0.11 0.6,0.18 0.43,0.15 0.86,0.3 1.28,0.45 0.42,0.15 0.85,0.3 1.28,0.44 0.43,0.14 0.87,0.27 1.31,0.38 0.45,0.12 0.9,0.21 1.37,0.28 0.37,0.05 0.74,0.09 1.12,0.11 0.37,0.02 0.76,0.02 1.15,0 0.39,-0.02 0.78,-0.08 1.18,-0.16 0.39,-0.09 0.79,-0.2 1.2,-0.36 0.72,-0.27 1.39,-0.63 2,-1.07 0.61,-0.45 1.17,-0.95 1.66,-1.51 0.5,-0.56 0.93,-1.17 1.29,-1.83 0.37,-0.66 0.67,-1.35 0.9,-2.06 0.12,-0.37 0.23,-0.76 0.33,-1.17 0.09,-0.42 0.16,-0.83 0.2,-1.24 0.05,-0.41 0.06,-0.81 0.05,-1.2 -0.02,-0.39 -0.08,-0.74 -0.18,-1.06 -0.08,-0.23 -0.19,-0.38 -0.33,-0.46 -0.14,-0.07 -0.3,-0.08 -0.47,-0.02 -0.18,0.06 -0.37,0.17 -0.56,0.35 -0.2,0.17 -0.39,0.39 -0.58,0.65zm-7.46 6.64c0.25,-0.02 0.48,-0.15 0.71,-0.37 0.22,-0.23 0.42,-0.49 0.61,-0.77 0.18,-0.29 0.34,-0.57 0.48,-0.85 0.13,-0.28 0.24,-0.49 0.31,-0.64 0.08,-0.43 0.18,-0.85 0.28,-1.26 0.1,-0.41 0.2,-0.79 0.29,-1.13 0.03,-0.31 -0.05,-0.55 -0.21,-0.74 -0.17,-0.19 -0.46,-0.25 -0.87,-0.18 -0.2,0.04 -0.43,0.18 -0.67,0.44 -0.24,0.25 -0.46,0.56 -0.68,0.91 -0.21,0.34 -0.41,0.72 -0.57,1.11 -0.17,0.4 -0.28,0.76 -0.34,1.07 -0.01,0.07 -0.02,0.17 -0.05,0.32 -0.02,0.15 -0.04,0.32 -0.05,0.51 -0.01,0.18 -0.01,0.37 -0.01,0.57 0.01,0.19 0.04,0.37 0.09,0.53 0.06,0.15 0.14,0.28 0.24,0.37 0.11,0.1 0.26,0.13 0.44,0.11z"/>
   <path class="fil0" d="M95.24 40.77c-0.14,-0.18 -0.24,-0.38 -0.32,-0.59 -0.16,-0.44 -0.15,-0.93 -0.08,-1.38 0.06,-0.35 0.19,-0.69 0.37,-0.99 0.16,-0.28 0.34,-0.53 0.55,-0.76 0.18,-0.2 0.39,-0.39 0.61,-0.55 0.17,-0.11 0.37,-0.24 0.57,-0.28l0.03 0c0.25,-0.04 0.5,-0.01 0.71,0.12 0.18,0.1 0.32,0.25 0.42,0.42 0.1,0.16 0.16,0.34 0.18,0.52 0.03,0.18 0.03,0.36 -0.02,0.54 -0.06,0.25 -0.15,0.5 -0.26,0.75 -0.09,0.22 -0.2,0.45 -0.31,0.67 -0.05,0.08 -0.09,0.17 -0.14,0.25 0.1,-0.02 0.2,-0.04 0.29,-0.09 0.09,-0.03 0.17,-0.08 0.24,-0.15 0.23,-0.22 0.56,-0.27 0.84,-0.11 0.15,0.08 0.27,0.21 0.36,0.35 0.09,0.15 0.14,0.32 0.16,0.49 0.02,0.22 -0.04,0.43 -0.16,0.61 -0.06,0.08 -0.11,0.17 -0.15,0.25 -0.12,0.2 -0.22,0.41 -0.33,0.61 -0.13,0.28 -0.27,0.55 -0.39,0.83 -0.14,0.3 -0.28,0.6 -0.4,0.91 -0.12,0.28 -0.23,0.57 -0.32,0.87 0,0 -0.01,0.01 -0.01,0.01 0.19,-0.26 0.37,-0.52 0.55,-0.78 0.21,-0.32 0.42,-0.64 0.63,-0.97l0.04 -0.06c0.01,-0.05 0.03,-0.11 0.05,-0.16 0.09,-0.28 0.2,-0.55 0.32,-0.82 0.14,-0.32 0.31,-0.64 0.49,-0.95 0.21,-0.36 0.45,-0.69 0.72,-0.99 0.29,-0.31 0.61,-0.59 0.97,-0.81 0.39,-0.25 0.82,-0.4 1.27,-0.47 0.39,-0.05 0.81,-0.05 1.17,0.14 0.01,0 0.02,0.01 0.03,0.01 0.05,-0.06 0.12,-0.11 0.2,-0.14l0.06 -0.03 0.06 -0.01c0.14,-0.03 0.29,-0.03 0.44,-0.02 0.15,0.02 0.3,0.05 0.44,0.11 0.15,0.07 0.28,0.15 0.39,0.27 0.16,0.17 0.24,0.39 0.21,0.62l-0.01 0.05 -0.01 0.03c-0.03,0.1 -0.06,0.21 -0.08,0.31 -0.07,0.25 -0.14,0.51 -0.21,0.76 -0.09,0.34 -0.18,0.67 -0.27,1.01 -0.1,0.39 -0.2,0.77 -0.3,1.15 -0.1,0.38 -0.18,0.76 -0.27,1.13 0,0.02 0,0.03 -0.01,0.05 0.19,-0.33 0.37,-0.66 0.55,-1 0.27,-0.53 0.55,-1.05 0.84,-1.57 0.29,-0.54 0.6,-1.07 0.91,-1.59 0.29,-0.49 0.6,-0.97 0.95,-1.42 0.28,-0.38 0.61,-0.75 0.97,-1.06 0.33,-0.29 0.74,-0.51 1.19,-0.5 0.35,0.01 0.66,0.15 0.9,0.4 0.21,0.21 0.35,0.48 0.45,0.76 0.09,0.29 0.15,0.58 0.18,0.88 0.04,0.3 0.05,0.6 0.05,0.9 0,0.27 0,0.53 -0.02,0.8 -0.02,0.21 -0.03,0.42 -0.07,0.63 -0.14,0.92 -0.39,1.81 -0.74,2.67 -0.33,0.83 -0.75,1.62 -1.26,2.35 -0.5,0.71 -1.07,1.36 -1.72,1.93 -0.63,0.56 -1.33,1.05 -2.08,1.45 -0.75,0.39 -1.54,0.68 -2.37,0.88 -0.84,0.19 -1.7,0.27 -2.57,0.22 -0.21,-0.01 -0.42,-0.03 -0.63,-0.06 -0.19,-0.02 -0.39,-0.05 -0.58,-0.08 -0.59,-0.09 -1.16,-0.22 -1.72,-0.38 -0.54,-0.16 -1.08,-0.33 -1.61,-0.51 -0.37,-0.13 -0.73,-0.27 -1.08,-0.42 -0.34,-0.14 -0.68,-0.26 -1.02,-0.35 -0.2,-0.06 -0.4,-0.11 -0.6,-0.17 -0.16,-0.04 -0.32,-0.09 -0.48,-0.13 -0.15,-0.03 -0.31,-0.07 -0.47,-0.1 -0.2,-0.04 -0.39,-0.07 -0.59,-0.09 -1.49,-0.18 -2.97,-0.03 -4.41,0.4 -1.61,0.47 -3.12,1.26 -4.49,2.22l-0.47 0.31 -0.64 -0.92 0.46 -0.32c0.55,-0.39 1.11,-0.76 1.69,-1.12 0.59,-0.36 1.21,-0.66 1.85,-0.92 0.12,-0.05 0.24,-0.09 0.36,-0.14 -0.23,-0.16 -0.43,-0.36 -0.58,-0.6 -0.06,0.1 -0.12,0.19 -0.19,0.29 -0.21,0.3 -0.45,0.6 -0.72,0.85 -0.27,0.24 -0.59,0.43 -0.96,0.46 -0.49,0.03 -0.91,-0.16 -1.18,-0.58 -0.17,-0.27 -0.27,-0.6 -0.32,-0.92 -0.12,0.18 -0.26,0.35 -0.39,0.53 -0.25,0.31 -0.53,0.61 -0.84,0.86 -0.29,0.24 -0.63,0.42 -1.01,0.48 -0.48,0.06 -0.96,-0.02 -1.32,-0.37 -0.3,-0.31 -0.46,-0.71 -0.53,-1.13 -0.08,-0.45 -0.07,-0.92 -0.03,-1.38 0.01,-0.03 0.01,-0.06 0.02,-0.1 -0.07,0.07 -0.14,0.14 -0.21,0.21 -0.38,0.38 -0.77,0.77 -1.15,1.16 0.03,0.4 0.04,0.81 0.04,1.21 -0.01,0.46 -0.05,0.91 -0.16,1.36 -0.07,0.3 -0.2,0.59 -0.36,0.85 -0.17,0.31 -0.39,0.6 -0.63,0.86 -0.27,0.29 -0.57,0.53 -0.9,0.73 -0.37,0.22 -0.77,0.35 -1.2,0.38 -0.51,0.04 -1.01,-0.1 -1.31,-0.54 -0.31,-0.44 -0.25,-1.05 -0.15,-1.53 0.05,-0.28 0.18,-0.55 0.33,-0.79 0.17,-0.26 0.35,-0.51 0.55,-0.75 0.23,-0.28 0.48,-0.56 0.73,-0.82 0.23,-0.25 0.46,-0.49 0.7,-0.73 -0.02,-0.37 -0.03,-0.74 -0.05,-1.11 -0.22,0.41 -0.45,0.81 -0.69,1.21 -0.23,0.39 -0.48,0.77 -0.74,1.13 -0.22,0.3 -0.46,0.6 -0.73,0.86 -0.23,0.23 -0.52,0.44 -0.86,0.5 -0.36,0.06 -0.71,-0.05 -0.94,-0.35 -0.17,-0.22 -0.26,-0.49 -0.31,-0.76 -0.02,-0.1 -0.03,-0.2 -0.04,-0.3 -0.13,0.12 -0.27,0.23 -0.42,0.33 -0.22,0.15 -0.46,0.26 -0.73,0.32 -0.3,0.06 -0.61,0.06 -0.92,0.01 -0.38,-0.06 -0.71,-0.23 -1,-0.5 -0.15,-0.14 -0.27,-0.3 -0.36,-0.48 -0.26,0.32 -0.54,0.64 -0.84,0.92 -0.31,0.3 -0.72,0.59 -1.18,0.55 -0.4,-0.04 -0.78,-0.17 -1.05,-0.48 -0.23,-0.26 -0.35,-0.58 -0.4,-0.92 -0.04,-0.33 -0.02,-0.67 0.04,-1 0.07,-0.35 0.16,-0.69 0.28,-1.02 0.19,-0.55 0.43,-1.09 0.69,-1.61 -0.34,-0.04 -0.66,-0.16 -0.94,-0.36 -0.19,-0.15 -0.35,-0.32 -0.48,-0.53 -0.23,0.35 -0.49,0.69 -0.76,1.01 -0.25,0.31 -0.52,0.6 -0.79,0.89 -0.36,0.38 -0.74,0.74 -1.13,1.09 0.22,0.17 0.39,0.39 0.52,0.63 0.2,0.39 0.16,0.83 0.04,1.23 -0.17,0.57 -0.42,1.11 -0.76,1.6 -0.31,0.43 -0.67,0.82 -1.08,1.16 -0.38,0.32 -0.79,0.59 -1.24,0.81 -0.38,0.19 -0.78,0.36 -1.19,0.5 -0.33,0.11 -0.68,0.21 -1.03,0.28 -0.22,0.04 -0.45,0.08 -0.68,0.11 -0.67,0.06 -1.39,0.05 -2.04,-0.15 -0.53,-0.16 -1.02,-0.42 -1.41,-0.82 -0.37,-0.36 -0.62,-0.8 -0.77,-1.29 -0.13,-0.47 -0.2,-0.96 -0.19,-1.44 0.01,-0.5 0.08,-0.99 0.21,-1.46 0.13,-0.46 0.29,-0.91 0.52,-1.33 0.09,-0.18 0.2,-0.37 0.35,-0.51 0.15,-0.13 0.31,-0.24 0.51,-0.26 0.32,-0.03 0.59,0.16 0.69,0.46 0.06,0.19 0.04,0.38 -0.03,0.56 -0.21,0.61 -0.4,1.3 -0.45,1.95 -0.02,0.38 -0.02,0.83 0.1,1.2 0.07,0.23 0.18,0.46 0.37,0.62 0.18,0.15 0.38,0.27 0.61,0.34 0.23,0.08 0.48,0.12 0.72,0.14 0.09,0 0.18,0 0.27,0 -0.4,-0.17 -0.43,-0.71 -0.41,-1.11 0.02,-0.37 0.06,-0.75 0.11,-1.12 -0.06,-0.05 -0.12,-0.11 -0.17,-0.18 -0.15,-0.22 -0.21,-0.47 -0.16,-0.73 0.04,-0.22 0.15,-0.42 0.3,-0.59 0.09,-0.1 0.2,-0.19 0.31,-0.27 0.09,-0.51 0.19,-1.01 0.29,-1.51 0.12,-0.61 0.24,-1.21 0.37,-1.81 0.12,-0.58 0.24,-1.15 0.37,-1.72 0.1,-0.48 0.21,-0.96 0.32,-1.44 0.04,-0.17 0.08,-0.33 0.11,-0.49 -0.28,0.26 -0.54,0.55 -0.78,0.85 -0.29,0.37 -0.57,0.75 -0.82,1.14 -0.18,0.27 -0.35,0.56 -0.51,0.85 -0.14,0.26 -0.29,0.57 -0.61,0.64 -0.34,0.07 -0.65,-0.09 -0.85,-0.37 -0.13,-0.19 -0.21,-0.41 -0.26,-0.63 -0.06,-0.24 -0.07,-0.48 -0.06,-0.72 0.02,-0.26 0.07,-0.51 0.19,-0.73 0.1,-0.18 0.3,-0.4 0.44,-0.55 0.26,-0.3 0.55,-0.59 0.83,-0.87 0.38,-0.38 0.78,-0.73 1.19,-1.08 0.46,-0.4 0.94,-0.76 1.45,-1.1 0.51,-0.35 1.06,-0.66 1.62,-0.92 0.56,-0.25 1.15,-0.43 1.76,-0.52 0.64,-0.08 1.32,-0.13 1.97,-0.08 0.5,0.04 1.01,0.14 1.47,0.33 0.39,0.16 0.75,0.38 1.04,0.69 0.25,0.26 0.46,0.56 0.6,0.89 0.13,0.32 0.21,0.64 0.23,0.98 0.02,0.17 0.03,0.34 0.02,0.52 0.04,-0.01 0.08,-0.02 0.11,-0.03l0.02 -0.01c0.25,-0.04 0.5,-0.01 0.72,0.13 0.18,0.1 0.32,0.24 0.42,0.42 0.1,0.16 0.16,0.33 0.18,0.52 0.03,0.18 0.02,0.36 -0.02,0.53 -0.06,0.26 -0.15,0.51 -0.26,0.75 -0.09,0.23 -0.2,0.45 -0.31,0.67 -0.05,0.09 -0.09,0.17 -0.14,0.26 0.1,-0.02 0.2,-0.05 0.29,-0.09 0.09,-0.04 0.17,-0.09 0.24,-0.15 0.23,-0.22 0.56,-0.27 0.84,-0.11 0.15,0.08 0.27,0.2 0.36,0.35 0.09,0.15 0.14,0.32 0.16,0.49 0.02,0.22 -0.04,0.43 -0.17,0.6 -0.05,0.08 -0.1,0.18 -0.14,0.26 -0.12,0.2 -0.22,0.41 -0.33,0.61 -0.14,0.27 -0.27,0.55 -0.4,0.83 -0.13,0.3 -0.27,0.6 -0.39,0.91 -0.12,0.28 -0.23,0.57 -0.32,0.86 0,0.01 -0.01,0.01 -0.01,0.02 0.19,-0.26 0.37,-0.52 0.55,-0.79 0.21,-0.32 0.42,-0.64 0.63,-0.96l0.03 -0.06c0.02,-0.05 0.04,-0.11 0.06,-0.16 0.09,-0.28 0.2,-0.55 0.32,-0.82 0.14,-0.33 0.31,-0.64 0.49,-0.95 0.21,-0.36 0.45,-0.69 0.72,-0.99 0.29,-0.32 0.61,-0.59 0.97,-0.82 0.39,-0.24 0.81,-0.39 1.27,-0.46 0.39,-0.06 0.81,-0.05 1.17,0.13 0.01,0.01 0.02,0.01 0.03,0.02 0.05,-0.06 0.12,-0.11 0.2,-0.15l0.06 -0.02 0.06 -0.01c0.14,-0.03 0.29,-0.03 0.44,-0.02 0.15,0.02 0.3,0.05 0.44,0.11 0.15,0.06 0.28,0.15 0.39,0.26 0.16,0.17 0.24,0.4 0.21,0.63l-0.01 0.04 -0.01 0.04c-0.03,0.1 -0.06,0.2 -0.09,0.31 -0.06,0.25 -0.13,0.5 -0.2,0.75 -0.09,0.34 -0.18,0.68 -0.27,1.02 -0.11,0.38 -0.2,0.77 -0.3,1.15 -0.1,0.37 -0.19,0.75 -0.27,1.13 -0.01,0.08 -0.03,0.16 -0.05,0.24 0.1,-0.16 0.2,-0.32 0.29,-0.48 0.22,-0.37 0.44,-0.75 0.65,-1.13 0.22,-0.38 0.43,-0.76 0.64,-1.14 0.18,-0.34 0.36,-0.67 0.54,-1.01 0.01,-0.1 0.01,-0.2 0.01,-0.3 0.02,-0.41 0.05,-0.84 0.16,-1.21 0.13,-0.45 0.32,-0.88 0.63,-1.23 0.25,-0.29 0.55,-0.54 0.9,-0.72 0.32,-0.16 0.66,-0.27 1.02,-0.3 0.3,-0.03 0.62,-0.03 0.91,0.02 0.22,0.03 0.41,0.17 0.5,0.38 0.07,0.16 0.08,0.33 0.04,0.5 -0.04,0.14 -0.11,0.26 -0.2,0.36 -0.12,0.13 -0.27,0.21 -0.44,0.25 -0.12,0.04 -0.23,0.08 -0.35,0.12 -0.1,0.05 -0.2,0.12 -0.29,0.19 -0.11,0.09 -0.21,0.21 -0.3,0.33 -0.11,0.15 -0.2,0.34 -0.26,0.52 -0.08,0.22 -0.12,0.47 -0.13,0.71 -0.02,0.34 -0.01,0.69 0.01,1.04 0.02,0.41 0.06,0.83 0.1,1.25 0,0.03 0,0.07 0.01,0.11 0.07,-0.08 0.15,-0.16 0.22,-0.23 0.36,-0.38 0.7,-0.77 1.03,-1.16 0.33,-0.4 0.65,-0.8 0.95,-1.22 0.04,-0.05 0.07,-0.1 0.11,-0.16 0.1,-0.3 0.2,-0.6 0.31,-0.9 0.12,-0.34 0.25,-0.68 0.4,-1 0.1,-0.23 0.22,-0.51 0.43,-0.65 0.16,-0.1 0.33,-0.16 0.51,-0.18 0.16,-0.02 0.32,-0.03 0.48,-0.01 0.14,0.02 0.28,0.05 0.42,0.11 0.27,0.1 0.47,0.33 0.47,0.64 0,0.16 -0.09,0.41 -0.15,0.57 -0.1,0.28 -0.2,0.58 -0.29,0.87 -0.14,0.39 -0.26,0.79 -0.39,1.19 -0.14,0.45 -0.27,0.89 -0.4,1.34 -0.12,0.43 -0.23,0.86 -0.32,1.3 -0.08,0.35 -0.15,0.71 -0.18,1.07 0,0.07 -0.01,0.15 -0.01,0.24 0.04,-0.04 0.08,-0.08 0.1,-0.1 0.25,-0.28 0.47,-0.59 0.68,-0.9 0.26,-0.4 0.51,-0.81 0.73,-1.23 0.24,-0.45 0.48,-0.91 0.71,-1.36l0.15 -0.32c0.14,-0.65 0.29,-1.3 0.45,-1.95 0.17,-0.67 0.36,-1.35 0.56,-2.01 0.18,-0.63 0.37,-1.25 0.58,-1.86 0.17,-0.52 0.34,-1.04 0.53,-1.55 0.13,-0.37 0.26,-0.73 0.41,-1.09 0.09,-0.23 0.2,-0.54 0.42,-0.69 0.15,-0.1 0.33,-0.15 0.51,-0.18 0.16,-0.02 0.32,-0.02 0.47,0 0.15,0.01 0.29,0.05 0.43,0.1 0.27,0.11 0.47,0.34 0.47,0.64 0,0.16 -0.1,0.44 -0.15,0.59 -0.11,0.34 -0.22,0.68 -0.33,1.02 -0.16,0.49 -0.31,0.98 -0.47,1.47 -0.19,0.58 -0.37,1.17 -0.55,1.76 -0.19,0.63 -0.38,1.27 -0.57,1.9 -0.18,0.62 -0.36,1.25 -0.52,1.88 -0.15,0.57 -0.29,1.14 -0.41,1.71 -0.1,0.45 -0.19,0.9 -0.25,1.35 0,0.06 -0.01,0.11 -0.01,0.17 0.15,-0.21 0.29,-0.44 0.42,-0.66 0.23,-0.4 0.44,-0.82 0.63,-1.24l0.06 -0.11c0.03,-0.22 0.07,-0.43 0.11,-0.63 0.12,-0.5 0.29,-0.98 0.5,-1.44 0.21,-0.46 0.46,-0.9 0.77,-1.31 0.04,-0.04 0.07,-0.09 0.11,-0.13 0.05,-0.09 0.11,-0.16 0.18,-0.22 0.23,-0.25 0.48,-0.48 0.75,-0.68 0.4,-0.29 0.85,-0.48 1.34,-0.55 0.29,-0.04 0.6,-0.04 0.89,0.04 0.24,0.08 0.46,0.21 0.63,0.4 0.16,0.18 0.27,0.39 0.32,0.62 0.04,0.18 0.06,0.36 0.06,0.54 0,0.13 -0.01,0.26 -0.03,0.39 0.12,-0.36 0.24,-0.72 0.37,-1.08 0.12,-0.33 0.25,-0.67 0.4,-1 0.1,-0.22 0.22,-0.51 0.43,-0.65 0.16,-0.1 0.33,-0.16 0.51,-0.18 0.16,-0.02 0.32,-0.02 0.47,0 0.15,0.01 0.29,0.04 0.43,0.1 0.27,0.11 0.47,0.34 0.47,0.64 0,0.16 -0.09,0.41 -0.15,0.57 -0.1,0.29 -0.2,0.58 -0.3,0.87 -0.13,0.4 -0.26,0.8 -0.38,1.2 -0.14,0.44 -0.27,0.88 -0.4,1.33 -0.12,0.43 -0.23,0.87 -0.32,1.3 -0.08,0.35 -0.15,0.72 -0.18,1.07 0,0.07 -0.01,0.15 -0.01,0.24 0.04,-0.04 0.07,-0.07 0.09,-0.1 0.26,-0.27 0.48,-0.58 0.69,-0.89 0.26,-0.4 0.5,-0.82 0.73,-1.24 0.24,-0.45 0.48,-0.9 0.71,-1.36 0.2,-0.42 0.41,-0.83 0.61,-1.25 0.03,-0.07 0.07,-0.14 0.1,-0.21zm0.54 2.5c-0.11,0.22 -0.22,0.43 -0.33,0.64 -0.22,0.42 -0.46,0.84 -0.71,1.24 -0.24,0.38 -0.49,0.76 -0.77,1.11 -0.19,0.23 -0.39,0.46 -0.61,0.66 0.2,0.05 0.4,0.11 0.59,0.16 0.22,0.05 0.44,0.12 0.65,0.19 0.44,0.15 0.87,0.3 1.29,0.45 0.42,0.15 0.84,0.3 1.27,0.44 0.42,0.13 0.85,0.26 1.28,0.37 0.43,0.11 0.86,0.2 1.31,0.27 0.35,0.05 0.7,0.08 1.06,0.1 0.36,0.02 0.72,0.02 1.08,0 0.37,-0.03 0.74,-0.08 1.1,-0.15 0.38,-0.08 0.75,-0.2 1.12,-0.33 0.67,-0.25 1.29,-0.59 1.87,-1.01 0.57,-0.42 1.1,-0.89 1.57,-1.42 0.47,-0.54 0.88,-1.12 1.22,-1.74 0.35,-0.62 0.63,-1.27 0.85,-1.95 0.12,-0.37 0.23,-0.75 0.31,-1.13 0.09,-0.38 0.16,-0.77 0.2,-1.17 0.04,-0.37 0.06,-0.74 0.04,-1.12 -0.01,-0.3 -0.05,-0.61 -0.15,-0.9 -0.01,-0.03 -0.04,-0.12 -0.04,-0.13 -0.01,0 -0.04,0 -0.05,0.01 -0.12,0.04 -0.26,0.15 -0.35,0.23 -0.19,0.17 -0.35,0.36 -0.5,0.56 -0.23,0.34 -0.43,0.71 -0.62,1.07 -0.27,0.5 -0.53,1.01 -0.79,1.52 -0.28,0.56 -0.57,1.12 -0.87,1.68 -0.29,0.56 -0.6,1.11 -0.93,1.64 -0.29,0.46 -0.61,0.91 -0.97,1.33 -0.29,0.34 -0.65,0.67 -1.08,0.84l-0.05 0.02 -0.05 0.01c-0.36,0.07 -0.71,-0.05 -0.95,-0.34 -0.17,-0.22 -0.26,-0.5 -0.31,-0.77 -0.02,-0.1 -0.03,-0.2 -0.04,-0.3 -0.13,0.12 -0.27,0.23 -0.42,0.33 -0.22,0.15 -0.46,0.27 -0.73,0.32 -0.3,0.06 -0.61,0.06 -0.92,0.01 -0.38,-0.06 -0.71,-0.23 -0.99,-0.49 -0.16,-0.14 -0.28,-0.31 -0.37,-0.49 -0.26,0.33 -0.53,0.64 -0.84,0.93 -0.31,0.29 -0.72,0.58 -1.18,0.54 -0.4,-0.04 -0.78,-0.17 -1.05,-0.48 -0.23,-0.26 -0.35,-0.57 -0.4,-0.92 -0.04,-0.33 -0.02,-0.67 0.04,-1 0.06,-0.28 0.13,-0.56 0.22,-0.83zm-5.37 3.37c-0.07,-0.17 -0.11,-0.35 -0.14,-0.53 -0.02,-0.1 -0.03,-0.19 -0.04,-0.29 -0.19,0.25 -0.39,0.5 -0.6,0.73 -0.05,0.05 -0.1,0.1 -0.15,0.15 0.09,0 0.18,-0.01 0.26,-0.02 0.23,-0.02 0.45,-0.03 0.67,-0.04zm-33.76 -0.02c0.1,-0.01 0.2,-0.02 0.29,-0.03 0.15,-0.02 0.29,-0.03 0.44,-0.05 0.04,-0.01 0.1,-0.01 0.16,-0.03 0.09,-0.06 0.19,-0.15 0.27,-0.21 0.26,-0.22 0.51,-0.46 0.75,-0.7 0.34,-0.33 0.66,-0.67 0.98,-1.02 0.36,-0.39 0.7,-0.8 1.03,-1.22 0.33,-0.42 0.64,-0.86 0.92,-1.32 0.24,-0.4 0.47,-0.83 0.63,-1.27 0.15,-0.41 0.29,-0.87 0.33,-1.3 0.02,-0.24 0.01,-0.54 -0.07,-0.77 -0.05,-0.15 -0.13,-0.28 -0.25,-0.37 -0.15,-0.11 -0.31,-0.2 -0.49,-0.25 -0.2,-0.06 -0.41,-0.1 -0.62,-0.1 -0.22,-0.01 -0.45,-0.01 -0.68,0.02 -0.19,0.02 -0.38,0.04 -0.57,0.08 -0.12,0.02 -0.23,0.04 -0.35,0.07 -0.46,0.1 -0.92,0.24 -1.35,0.42 0.19,0.21 0.22,0.54 0.1,0.84 -0.06,0.15 -0.1,0.35 -0.14,0.5 -0.09,0.35 -0.17,0.7 -0.25,1.05 -0.11,0.47 -0.21,0.94 -0.3,1.41 -0.12,0.54 -0.22,1.08 -0.33,1.62 -0.11,0.57 -0.22,1.14 -0.33,1.71 -0.06,0.3 -0.11,0.61 -0.17,0.92zm33.38 -3.31c-0.32,0.32 -0.68,0.61 -1.09,0.81 -0.35,0.18 -0.72,0.32 -1.1,0.4 -0.1,0.02 -0.2,0.03 -0.29,0.05 -0.01,0.14 -0.01,0.28 0,0.41 0,0.2 0.03,0.4 0.1,0.58 0.03,0.08 0.08,0.18 0.15,0.23 0.01,0.01 0.08,0 0.1,0 0.14,-0.02 0.35,-0.2 0.45,-0.29 0.28,-0.27 0.54,-0.57 0.77,-0.88 0.3,-0.39 0.57,-0.78 0.83,-1.19 0.03,-0.04 0.06,-0.08 0.08,-0.12zm-33.98 7.49c0.34,-0.15 0.66,-0.32 0.97,-0.52 0.42,-0.26 0.79,-0.58 1.12,-0.94 0.29,-0.31 0.5,-0.67 0.6,-1.06 0,-0.01 0,-0.04 0.01,-0.06 -0.04,-0.02 -0.07,-0.04 -0.11,-0.05 -0.14,-0.03 -0.29,-0.03 -0.43,-0.01 -0.26,0.12 -0.51,0.23 -0.76,0.34 -0.26,0.11 -0.51,0.22 -0.77,0.32 -0.14,0.05 -0.28,0.11 -0.42,0.16 -0.05,0.32 -0.1,0.65 -0.14,0.98 -0.02,0.12 -0.05,0.35 -0.04,0.48l0 0c0.03,0.13 0.02,0.25 -0.03,0.36zm14.42 -5.38c0.08,-0.41 0.17,-0.81 0.27,-1.21 0.09,-0.37 0.18,-0.73 0.28,-1.09 0,-0.1 -0.01,-0.2 -0.07,-0.28 -0.07,-0.03 -0.28,-0.01 -0.35,0.01 -0.11,0.01 -0.28,0.19 -0.35,0.26 -0.24,0.25 -0.44,0.53 -0.62,0.82 -0.2,0.33 -0.38,0.68 -0.53,1.04 -0.13,0.3 -0.24,0.62 -0.3,0.94 -0.01,0.11 -0.03,0.21 -0.05,0.32 -0.02,0.15 -0.04,0.3 -0.05,0.45 -0.01,0.17 -0.01,0.34 0,0.51 0,0.13 0.02,0.26 0.06,0.38 0.01,0.04 0.04,0.09 0.03,0.1 0.01,0 0.04,0 0.05,0 0.14,-0.01 0.27,-0.12 0.36,-0.21 0.21,-0.21 0.38,-0.43 0.54,-0.68 0.16,-0.25 0.31,-0.52 0.45,-0.79 0.09,-0.19 0.18,-0.38 0.28,-0.57zm3.88 4.49c0,0.01 -0.01,0.02 -0.02,0.03 -0.2,0.25 -0.44,0.6 -0.52,0.92 -0.01,0.03 -0.01,0.05 -0.01,0.08 0.01,-0.01 0.02,-0.02 0.03,-0.03 0.09,-0.09 0.17,-0.19 0.23,-0.29 0.08,-0.14 0.15,-0.29 0.2,-0.44 0.03,-0.09 0.06,-0.18 0.09,-0.27zm14.66 -8.84c-0.07,0.05 -0.14,0.1 -0.2,0.16 -0.2,0.19 -0.36,0.42 -0.5,0.66 -0.17,0.29 -0.31,0.6 -0.42,0.92 -0.01,0.04 -0.03,0.08 -0.04,0.13 0.03,-0.02 0.06,-0.03 0.08,-0.05 0.2,-0.12 0.38,-0.28 0.53,-0.46 0.2,-0.22 0.33,-0.52 0.42,-0.8 0.05,-0.16 0.11,-0.37 0.13,-0.56zm13.72 1.08c0.08,-0.41 0.17,-0.81 0.27,-1.21 0.09,-0.36 0.18,-0.73 0.28,-1.09 0,-0.1 -0.01,-0.2 -0.07,-0.27 -0.06,-0.04 -0.28,-0.01 -0.35,0 -0.1,0.02 -0.28,0.19 -0.35,0.27 -0.24,0.25 -0.44,0.53 -0.62,0.82 -0.2,0.33 -0.38,0.68 -0.53,1.04 -0.13,0.29 -0.24,0.61 -0.3,0.93 -0.01,0.11 -0.03,0.22 -0.05,0.33 -0.02,0.14 -0.04,0.3 -0.05,0.45 -0.01,0.17 -0.01,0.34 0,0.51 0,0.12 0.02,0.25 0.06,0.37 0.02,0.05 0.04,0.1 0.03,0.1 0.02,0.01 0.04,0.01 0.05,0 0.14,-0.01 0.27,-0.11 0.36,-0.21 0.21,-0.2 0.39,-0.43 0.54,-0.67 0.16,-0.26 0.32,-0.52 0.45,-0.79 0.09,-0.2 0.18,-0.39 0.28,-0.58zm-20.58 -5.61c0.22,0.01 0.44,0.07 0.61,0.21 0.15,0.11 0.26,0.26 0.33,0.42 0.07,0.17 0.09,0.34 0.08,0.52 -0.01,0.1 -0.02,0.21 -0.05,0.31l0 0.02c-0.06,0.23 -0.15,0.45 -0.27,0.65 -0.12,0.17 -0.25,0.32 -0.42,0.45 -0.15,0.11 -0.31,0.19 -0.49,0.24 -0.15,0.04 -0.31,0.06 -0.47,0.04 -0.26,-0.03 -0.5,-0.15 -0.65,-0.37 -0.11,-0.15 -0.17,-0.32 -0.19,-0.51 -0.02,-0.15 -0.02,-0.31 0.01,-0.47 0.03,-0.14 0.07,-0.28 0.13,-0.41 0.07,-0.18 0.17,-0.35 0.29,-0.5 0.11,-0.12 0.23,-0.24 0.36,-0.33 0.1,-0.08 0.22,-0.15 0.33,-0.2 0.13,-0.05 0.26,-0.08 0.4,-0.07zm12.01 -1.22c0.23,0.01 0.44,0.07 0.62,0.21 0.15,0.11 0.26,0.26 0.33,0.43 0.07,0.16 0.09,0.34 0.08,0.51 -0.01,0.11 -0.03,0.21 -0.05,0.32l0 0.02c-0.06,0.22 -0.15,0.44 -0.28,0.64 -0.11,0.17 -0.24,0.33 -0.41,0.45 -0.15,0.11 -0.31,0.19 -0.49,0.24 -0.15,0.04 -0.31,0.06 -0.47,0.04 -0.27,-0.02 -0.5,-0.15 -0.65,-0.37 -0.11,-0.15 -0.17,-0.32 -0.2,-0.5 -0.02,-0.16 -0.01,-0.32 0.02,-0.48 0.03,-0.14 0.07,-0.28 0.13,-0.41 0.07,-0.18 0.17,-0.34 0.29,-0.49 0.11,-0.13 0.23,-0.24 0.36,-0.34 0.1,-0.08 0.21,-0.14 0.33,-0.19 0.13,-0.06 0.26,-0.09 0.39,-0.08z"/>
   <g>
    <path class="fil2" d="M56.41 39.44c0.04,-0.06 0.14,-0.14 0.3,-0.23 0.16,-0.1 0.32,-0.17 0.48,-0.23 0.16,-0.06 0.29,-0.07 0.4,-0.05 0.1,0.02 0.12,0.11 0.06,0.27 -0.04,0.1 -0.1,0.29 -0.17,0.58 -0.07,0.28 -0.16,0.64 -0.25,1.06 -0.1,0.42 -0.2,0.89 -0.31,1.41 -0.1,0.52 -0.21,1.07 -0.33,1.63 -0.11,0.57 -0.22,1.14 -0.33,1.71 -0.1,0.58 -0.2,1.13 -0.29,1.65 0.16,-0.01 0.33,-0.03 0.51,-0.04 0.18,-0.02 0.35,-0.03 0.52,-0.05 0.17,-0.02 0.32,-0.03 0.45,-0.05 0.13,-0.02 0.23,-0.04 0.31,-0.06 0.05,-0.02 0.19,-0.12 0.41,-0.31 0.22,-0.18 0.48,-0.42 0.79,-0.72 0.31,-0.3 0.64,-0.65 1,-1.05 0.36,-0.39 0.71,-0.81 1.06,-1.26 0.34,-0.44 0.66,-0.89 0.95,-1.36 0.29,-0.47 0.51,-0.93 0.68,-1.37 0.21,-0.57 0.33,-1.05 0.36,-1.45 0.03,-0.41 0,-0.74 -0.1,-1.01 -0.09,-0.27 -0.24,-0.48 -0.44,-0.63 -0.2,-0.15 -0.42,-0.27 -0.66,-0.34 -0.25,-0.08 -0.5,-0.12 -0.77,-0.13 -0.27,-0.01 -0.52,0 -0.75,0.02 -0.24,0.03 -0.45,0.06 -0.63,0.09 -0.18,0.04 -0.3,0.06 -0.36,0.07 -0.76,0.17 -1.44,0.42 -2.05,0.75 -0.6,0.33 -1.14,0.7 -1.61,1.11 -0.47,0.41 -0.88,0.82 -1.22,1.25 -0.34,0.43 -0.62,0.83 -0.85,1.18 -0.23,0.36 -0.4,0.66 -0.53,0.89 -0.12,0.23 -0.2,0.35 -0.23,0.35 -0.09,0.03 -0.18,-0.02 -0.26,-0.13 -0.08,-0.12 -0.14,-0.26 -0.18,-0.44 -0.04,-0.17 -0.06,-0.36 -0.04,-0.56 0.01,-0.19 0.05,-0.36 0.12,-0.49 0.03,-0.06 0.15,-0.21 0.36,-0.45 0.21,-0.23 0.48,-0.52 0.81,-0.84 0.33,-0.33 0.72,-0.68 1.15,-1.05 0.44,-0.38 0.91,-0.73 1.4,-1.06 0.5,-0.34 1.01,-0.63 1.55,-0.87 0.53,-0.25 1.06,-0.41 1.59,-0.48 0.72,-0.09 1.34,-0.12 1.85,-0.07 0.52,0.04 0.95,0.13 1.31,0.28 0.35,0.15 0.63,0.33 0.85,0.56 0.21,0.22 0.37,0.46 0.47,0.72 0.11,0.26 0.18,0.53 0.2,0.81 0.03,0.27 0.02,0.54 0,0.79 -0.03,0.26 -0.07,0.49 -0.12,0.7 -0.06,0.21 -0.11,0.37 -0.15,0.48 -0.17,0.45 -0.37,0.88 -0.59,1.3 -0.22,0.41 -0.46,0.8 -0.71,1.16 -0.24,0.37 -0.5,0.71 -0.76,1.02 -0.27,0.32 -0.52,0.6 -0.77,0.86 -0.58,0.61 -1.18,1.16 -1.81,1.63 0.28,0.06 0.52,0.15 0.71,0.27 0.16,0.12 0.29,0.27 0.4,0.47 0.1,0.2 0.1,0.47 0,0.81 -0.16,0.54 -0.39,1.02 -0.68,1.43 -0.29,0.41 -0.62,0.76 -0.98,1.05 -0.36,0.3 -0.73,0.55 -1.13,0.74 -0.39,0.2 -0.77,0.35 -1.12,0.47 -0.35,0.12 -0.67,0.21 -0.95,0.26 -0.28,0.05 -0.5,0.09 -0.64,0.1 -0.72,0.08 -1.32,0.03 -1.81,-0.12 -0.49,-0.15 -0.89,-0.38 -1.18,-0.68 -0.3,-0.29 -0.5,-0.64 -0.62,-1.05 -0.12,-0.41 -0.18,-0.83 -0.17,-1.27 0.01,-0.44 0.07,-0.88 0.19,-1.33 0.12,-0.44 0.27,-0.84 0.47,-1.2 0.08,-0.17 0.17,-0.29 0.24,-0.36 0.08,-0.08 0.14,-0.11 0.18,-0.12 0.05,0 0.08,0.02 0.09,0.07 0.02,0.05 0.01,0.12 -0.02,0.2 -0.28,0.83 -0.44,1.53 -0.48,2.1 -0.04,0.57 0,1.04 0.12,1.41 0.12,0.38 0.3,0.67 0.54,0.88 0.25,0.2 0.51,0.35 0.8,0.45 0.29,0.09 0.58,0.15 0.88,0.16 0.3,0.01 0.56,0.01 0.79,0 0.34,-0.01 0.74,-0.1 1.21,-0.27 0.47,-0.18 0.94,-0.41 1.4,-0.7 0.47,-0.3 0.88,-0.64 1.24,-1.04 0.37,-0.4 0.61,-0.84 0.73,-1.32 0.05,-0.25 0.02,-0.43 -0.1,-0.55 -0.12,-0.11 -0.26,-0.19 -0.43,-0.23 -0.2,-0.04 -0.43,-0.05 -0.71,-0.01 -0.28,0.13 -0.56,0.25 -0.83,0.37 -0.24,0.1 -0.48,0.21 -0.75,0.31 -0.27,0.11 -0.51,0.2 -0.71,0.26 -0.09,0.53 -0.16,0.98 -0.2,1.34 -0.05,0.36 -0.06,0.58 -0.03,0.67 0.01,0.04 -0.03,0.06 -0.1,0.08 -0.07,0.01 -0.16,0.02 -0.27,0.03 -0.1,0.01 -0.22,0.01 -0.34,0.01 -0.13,-0.01 -0.24,-0.01 -0.34,-0.02 -0.1,0 -0.14,-0.19 -0.12,-0.57 0.02,-0.37 0.08,-0.86 0.16,-1.47 -0.15,-0.04 -0.26,-0.1 -0.32,-0.19 -0.06,-0.09 -0.09,-0.19 -0.07,-0.29 0.02,-0.11 0.08,-0.22 0.18,-0.33 0.09,-0.11 0.22,-0.21 0.39,-0.29 0.1,-0.56 0.21,-1.14 0.33,-1.75 0.13,-0.61 0.25,-1.21 0.37,-1.81 0.13,-0.59 0.25,-1.16 0.37,-1.71 0.12,-0.54 0.23,-1.02 0.32,-1.43 0.1,-0.42 0.17,-0.75 0.23,-1 0.05,-0.24 0.09,-0.37 0.09,-0.38zm8.38 0.6c0.14,-0.02 0.25,0 0.34,0.05 0.1,0.06 0.17,0.13 0.23,0.22 0.05,0.1 0.09,0.2 0.1,0.32 0.02,0.11 0.02,0.22 -0.01,0.31 -0.05,0.23 -0.13,0.45 -0.23,0.67 -0.09,0.22 -0.19,0.43 -0.29,0.63 -0.11,0.21 -0.21,0.39 -0.32,0.56 -0.1,0.16 -0.18,0.3 -0.25,0.41 0.13,0.07 0.28,0.11 0.45,0.13 0.16,0.02 0.33,0.01 0.5,-0.01 0.18,-0.03 0.34,-0.07 0.5,-0.14 0.15,-0.07 0.28,-0.16 0.4,-0.26 0.05,-0.06 0.11,-0.07 0.17,-0.03 0.06,0.03 0.11,0.08 0.16,0.16 0.04,0.07 0.07,0.15 0.07,0.24 0.01,0.09 -0.01,0.17 -0.06,0.23 -0.02,0.03 -0.08,0.13 -0.18,0.3 -0.09,0.17 -0.2,0.38 -0.33,0.63 -0.13,0.26 -0.26,0.54 -0.41,0.85 -0.14,0.31 -0.28,0.62 -0.41,0.93 -0.12,0.31 -0.23,0.62 -0.33,0.91 -0.1,0.29 -0.16,0.55 -0.19,0.77 -0.03,0.22 -0.03,0.4 0.02,0.52 0.05,0.12 0.15,0.17 0.31,0.14 0.08,-0.02 0.19,-0.1 0.33,-0.26 0.14,-0.15 0.3,-0.35 0.49,-0.6 0.18,-0.25 0.38,-0.54 0.59,-0.85 0.21,-0.32 0.42,-0.65 0.63,-0.98 0.22,-0.33 0.42,-0.66 0.61,-0.98 0.2,-0.32 0.38,-0.62 0.54,-0.88 0.16,-0.25 0.29,-0.47 0.4,-0.65 0.11,-0.17 0.17,-0.28 0.2,-0.31 0.05,-0.08 0.11,-0.13 0.17,-0.15 0.06,-0.03 0.11,-0.04 0.16,-0.03 0.05,0 0.08,0.03 0.1,0.07 0.02,0.04 0.02,0.09 0,0.15 -0.02,0.04 -0.11,0.22 -0.28,0.54 -0.17,0.32 -0.38,0.71 -0.65,1.17 -0.27,0.46 -0.57,0.95 -0.89,1.47 -0.33,0.53 -0.66,1.01 -0.98,1.44 -0.33,0.44 -0.64,0.8 -0.94,1.08 -0.3,0.28 -0.55,0.41 -0.75,0.39 -0.31,-0.02 -0.53,-0.12 -0.67,-0.28 -0.15,-0.17 -0.23,-0.37 -0.27,-0.62 -0.03,-0.25 -0.02,-0.53 0.04,-0.83 0.06,-0.31 0.14,-0.62 0.25,-0.93 0.26,-0.74 0.64,-1.56 1.16,-2.48 -0.28,0.1 -0.57,0.15 -0.85,0.13 -0.29,-0.02 -0.54,-0.11 -0.75,-0.27 -0.22,-0.16 -0.38,-0.38 -0.48,-0.67 -0.1,-0.29 -0.12,-0.65 -0.05,-1.09 0.05,-0.28 0.15,-0.55 0.3,-0.8 0.14,-0.25 0.3,-0.47 0.48,-0.67 0.18,-0.19 0.34,-0.34 0.51,-0.46 0.16,-0.11 0.28,-0.17 0.36,-0.19zm-0.86 2.26c-0.02,0.13 -0.02,0.26 0,0.37 0.03,0.12 0.07,0.21 0.13,0.29 0.08,-0.17 0.19,-0.39 0.31,-0.66 0.12,-0.27 0.23,-0.52 0.33,-0.76 0.1,-0.25 0.17,-0.45 0.21,-0.62 0.04,-0.18 0.02,-0.26 -0.07,-0.25 -0.05,0.01 -0.11,0.06 -0.2,0.15 -0.09,0.09 -0.18,0.21 -0.28,0.36 -0.09,0.15 -0.18,0.32 -0.26,0.51 -0.08,0.19 -0.14,0.4 -0.17,0.61zm8.15 -0.45c0.09,-0.01 0.19,-0.02 0.29,-0.01 0.09,0.01 0.19,0.04 0.27,0.07 0.08,0.04 0.15,0.08 0.2,0.13 0.05,0.05 0.07,0.1 0.06,0.15 -0.01,0.02 -0.04,0.14 -0.09,0.33 -0.05,0.2 -0.12,0.45 -0.21,0.75 -0.08,0.31 -0.17,0.65 -0.27,1.02 -0.1,0.38 -0.2,0.77 -0.3,1.16 -0.1,0.39 -0.19,0.78 -0.27,1.15 -0.08,0.38 -0.14,0.71 -0.19,1.01 -0.05,0.3 -0.07,0.54 -0.07,0.72 0,0.18 0.03,0.28 0.09,0.3 0.07,0.02 0.18,-0.06 0.33,-0.22 0.15,-0.17 0.32,-0.39 0.51,-0.67 0.19,-0.28 0.4,-0.6 0.61,-0.97 0.22,-0.37 0.43,-0.75 0.65,-1.14 0.22,-0.39 0.44,-0.77 0.64,-1.15 0.21,-0.38 0.4,-0.72 0.56,-1.03 0.16,-0.3 0.3,-0.56 0.41,-0.75 0.11,-0.2 0.17,-0.32 0.2,-0.34 0.04,-0.05 0.09,-0.09 0.14,-0.11 0.05,-0.01 0.09,-0.01 0.12,0 0.04,0.02 0.06,0.05 0.07,0.1 0.01,0.05 -0.01,0.1 -0.05,0.16 -0.02,0.03 -0.08,0.15 -0.18,0.36 -0.1,0.21 -0.23,0.48 -0.4,0.81 -0.16,0.33 -0.35,0.69 -0.55,1.1 -0.2,0.4 -0.42,0.81 -0.65,1.24 -0.23,0.42 -0.47,0.83 -0.71,1.24 -0.24,0.4 -0.47,0.76 -0.71,1.08 -0.23,0.32 -0.46,0.58 -0.66,0.78 -0.21,0.21 -0.4,0.32 -0.57,0.35 -0.16,0.03 -0.3,-0.01 -0.39,-0.13 -0.1,-0.13 -0.16,-0.3 -0.2,-0.52 -0.04,-0.23 -0.06,-0.49 -0.05,-0.81 0.01,-0.31 0.03,-0.65 0.07,-1.01 -0.1,0.16 -0.23,0.34 -0.37,0.52 -0.15,0.19 -0.3,0.37 -0.47,0.53 -0.17,0.16 -0.34,0.31 -0.52,0.43 -0.18,0.12 -0.35,0.2 -0.52,0.23 -0.22,0.05 -0.46,0.05 -0.72,0.01 -0.26,-0.04 -0.5,-0.16 -0.7,-0.35 -0.2,-0.19 -0.35,-0.47 -0.44,-0.85 -0.09,-0.38 -0.08,-0.88 0.05,-1.51 0.02,-0.09 0.06,-0.25 0.13,-0.47 0.08,-0.22 0.18,-0.47 0.3,-0.76 0.13,-0.28 0.29,-0.58 0.47,-0.9 0.18,-0.32 0.4,-0.62 0.65,-0.89 0.25,-0.28 0.54,-0.52 0.85,-0.72 0.32,-0.2 0.67,-0.33 1.05,-0.38 0.35,-0.05 0.63,-0.03 0.83,0.08 0.21,0.1 0.36,0.24 0.46,0.41 0.06,-0.16 0.11,-0.28 0.15,-0.37 0.05,-0.09 0.08,-0.15 0.1,-0.16zm-3.18 6.38c0.25,-0.02 0.48,-0.15 0.71,-0.37 0.22,-0.23 0.42,-0.49 0.61,-0.77 0.18,-0.29 0.34,-0.57 0.48,-0.85 0.13,-0.28 0.23,-0.5 0.31,-0.64 0.08,-0.43 0.18,-0.85 0.28,-1.26 0.1,-0.41 0.2,-0.79 0.29,-1.13 0.03,-0.31 -0.05,-0.55 -0.21,-0.74 -0.17,-0.2 -0.46,-0.25 -0.87,-0.18 -0.2,0.04 -0.43,0.18 -0.67,0.44 -0.24,0.25 -0.46,0.56 -0.68,0.9 -0.21,0.35 -0.41,0.73 -0.57,1.12 -0.17,0.4 -0.28,0.75 -0.34,1.07 -0.01,0.07 -0.02,0.17 -0.05,0.32 -0.02,0.15 -0.04,0.32 -0.05,0.51 -0.01,0.18 -0.01,0.37 -0.01,0.57 0.01,0.19 0.04,0.37 0.09,0.52 0.06,0.16 0.14,0.29 0.24,0.38 0.11,0.09 0.26,0.13 0.44,0.11zm6.2 -6.39c0.11,-0.41 0.28,-0.75 0.5,-1.01 0.23,-0.26 0.47,-0.45 0.73,-0.59 0.27,-0.13 0.54,-0.21 0.82,-0.24 0.29,-0.03 0.54,-0.02 0.78,0.02 0.03,0 0.05,0.02 0.07,0.06 0.01,0.03 0.02,0.07 0,0.11 -0.01,0.05 -0.03,0.09 -0.07,0.13 -0.03,0.04 -0.09,0.07 -0.16,0.08 -0.14,0.04 -0.29,0.09 -0.43,0.16 -0.14,0.06 -0.29,0.15 -0.43,0.26 -0.14,0.11 -0.27,0.26 -0.4,0.44 -0.12,0.17 -0.24,0.39 -0.33,0.66 -0.09,0.24 -0.14,0.53 -0.16,0.86 -0.02,0.34 -0.02,0.71 0,1.11 0.03,0.4 0.06,0.82 0.1,1.27 0.05,0.45 0.09,0.89 0.13,1.34 0.36,-0.37 0.72,-0.74 1.08,-1.13 0.37,-0.38 0.72,-0.77 1.06,-1.18 0.34,-0.41 0.66,-0.82 0.97,-1.25 0.3,-0.42 0.58,-0.85 0.83,-1.28 0.04,-0.08 0.09,-0.13 0.15,-0.16 0.06,-0.02 0.11,-0.03 0.15,-0.01 0.05,0.02 0.08,0.07 0.09,0.14 0.02,0.08 0,0.18 -0.04,0.3 -0.12,0.35 -0.33,0.72 -0.62,1.13 -0.29,0.4 -0.63,0.82 -1.02,1.26 -0.4,0.43 -0.82,0.88 -1.27,1.33 -0.45,0.45 -0.89,0.9 -1.33,1.34 0.04,0.5 0.06,0.98 0.05,1.43 0,0.45 -0.05,0.86 -0.14,1.23 -0.04,0.2 -0.14,0.44 -0.3,0.7 -0.15,0.26 -0.33,0.51 -0.56,0.76 -0.22,0.24 -0.48,0.45 -0.78,0.62 -0.29,0.18 -0.61,0.28 -0.94,0.31 -0.38,0.02 -0.65,-0.08 -0.8,-0.3 -0.16,-0.22 -0.18,-0.59 -0.06,-1.11 0.03,-0.18 0.11,-0.37 0.25,-0.59 0.13,-0.21 0.3,-0.44 0.51,-0.69 0.2,-0.25 0.44,-0.51 0.7,-0.8 0.27,-0.28 0.56,-0.57 0.86,-0.88 -0.02,-0.51 -0.04,-1.05 -0.07,-1.63 -0.03,-0.57 -0.05,-1.12 -0.06,-1.65 -0.02,-0.54 -0.02,-1.03 0,-1.47 0.01,-0.45 0.06,-0.81 0.14,-1.08zm-0.13 7.97c0.05,-0.19 0.08,-0.42 0.1,-0.7 0.02,-0.28 0.03,-0.58 0.03,-0.92 -0.48,0.51 -0.88,0.97 -1.21,1.4 -0.34,0.43 -0.55,0.81 -0.63,1.13 -0.03,0.11 -0.03,0.22 -0.03,0.32 0.01,0.1 0.04,0.19 0.09,0.27 0.04,0.08 0.11,0.14 0.19,0.19 0.08,0.04 0.18,0.05 0.3,0.03 0.15,-0.02 0.29,-0.09 0.41,-0.21 0.12,-0.11 0.23,-0.26 0.33,-0.42 0.1,-0.17 0.18,-0.34 0.25,-0.53 0.06,-0.2 0.12,-0.38 0.17,-0.56zm5.49 -9.44c0.08,-0.05 0.17,-0.08 0.28,-0.09 0.11,-0.02 0.22,-0.02 0.33,-0.01 0.11,0.02 0.2,0.04 0.28,0.07 0.08,0.03 0.12,0.07 0.12,0.12 0,0.02 -0.04,0.15 -0.12,0.38 -0.08,0.23 -0.18,0.52 -0.3,0.88 -0.12,0.36 -0.25,0.76 -0.39,1.2 -0.14,0.45 -0.27,0.9 -0.4,1.36 -0.13,0.45 -0.24,0.9 -0.34,1.33 -0.09,0.43 -0.15,0.81 -0.18,1.14 -0.03,0.33 -0.01,0.59 0.05,0.78 0.06,0.19 0.18,0.27 0.36,0.23 0.2,-0.03 0.42,-0.18 0.65,-0.44 0.24,-0.26 0.49,-0.58 0.74,-0.97 0.26,-0.38 0.51,-0.81 0.76,-1.28 0.25,-0.46 0.49,-0.92 0.71,-1.37 0.23,-0.45 0.43,-0.87 0.62,-1.26 0.19,-0.38 0.34,-0.69 0.46,-0.92 0.05,-0.09 0.12,-0.13 0.2,-0.13 0.09,0 0.13,0.05 0.12,0.15 0,0.02 -0.03,0.13 -0.11,0.33 -0.08,0.19 -0.18,0.44 -0.31,0.75 -0.13,0.31 -0.29,0.66 -0.47,1.05 -0.18,0.39 -0.38,0.79 -0.59,1.2 -0.22,0.41 -0.45,0.81 -0.69,1.2 -0.24,0.39 -0.49,0.74 -0.74,1.05 -0.24,0.32 -0.49,0.58 -0.74,0.78 -0.25,0.21 -0.5,0.32 -0.74,0.36 -0.37,0.05 -0.65,-0.02 -0.84,-0.21 -0.19,-0.19 -0.31,-0.47 -0.37,-0.82 -0.06,-0.35 -0.07,-0.76 -0.02,-1.23 0.05,-0.47 0.12,-0.95 0.23,-1.46 0.11,-0.5 0.24,-0.99 0.39,-1.48 0.15,-0.48 0.3,-0.92 0.44,-1.32 0.15,-0.39 0.27,-0.71 0.39,-0.96 0.11,-0.25 0.18,-0.39 0.22,-0.41zm1.64 -3.27c0.14,0.01 0.24,0.04 0.31,0.09 0.08,0.06 0.13,0.13 0.16,0.2 0.03,0.08 0.04,0.16 0.04,0.25 -0.01,0.09 -0.02,0.17 -0.04,0.24 -0.05,0.19 -0.11,0.35 -0.2,0.48 -0.08,0.13 -0.17,0.23 -0.27,0.3 -0.1,0.08 -0.2,0.12 -0.3,0.15 -0.1,0.03 -0.19,0.04 -0.27,0.03 -0.11,-0.01 -0.19,-0.06 -0.25,-0.13 -0.05,-0.08 -0.08,-0.16 -0.09,-0.26 -0.01,-0.09 -0.01,-0.19 0.01,-0.3 0.02,-0.1 0.05,-0.2 0.09,-0.29 0.06,-0.14 0.12,-0.25 0.21,-0.35 0.08,-0.1 0.17,-0.18 0.25,-0.24 0.08,-0.06 0.16,-0.11 0.22,-0.13 0.07,-0.03 0.11,-0.04 0.13,-0.04zm3.82 -2.64c0.07,-0.05 0.17,-0.08 0.28,-0.1 0.11,-0.01 0.22,-0.02 0.33,0 0.1,0.01 0.2,0.03 0.28,0.07 0.08,0.03 0.12,0.07 0.12,0.11 0,0.02 -0.04,0.16 -0.13,0.41 -0.08,0.26 -0.19,0.6 -0.33,1.02 -0.13,0.43 -0.29,0.92 -0.47,1.48 -0.18,0.55 -0.36,1.14 -0.55,1.76 -0.19,0.62 -0.38,1.26 -0.57,1.91 -0.19,0.65 -0.37,1.28 -0.53,1.9 -0.16,0.61 -0.3,1.19 -0.42,1.73 -0.11,0.54 -0.2,1.01 -0.25,1.41 -0.04,0.4 -0.05,0.71 -0.01,0.93 0.03,0.21 0.12,0.31 0.26,0.29 0.17,-0.02 0.36,-0.16 0.57,-0.41 0.2,-0.26 0.42,-0.58 0.64,-0.96 0.22,-0.39 0.44,-0.81 0.66,-1.28 0.22,-0.46 0.42,-0.92 0.61,-1.37 0.19,-0.45 0.37,-0.87 0.52,-1.26 0.15,-0.38 0.27,-0.69 0.37,-0.91 0.04,-0.09 0.1,-0.14 0.19,-0.14 0.09,0.01 0.14,0.05 0.14,0.14 0,0.02 -0.03,0.13 -0.1,0.33 -0.07,0.2 -0.16,0.46 -0.28,0.77 -0.12,0.32 -0.26,0.67 -0.42,1.06 -0.17,0.4 -0.34,0.8 -0.53,1.21 -0.19,0.41 -0.39,0.81 -0.6,1.2 -0.21,0.39 -0.42,0.74 -0.64,1.05 -0.22,0.31 -0.43,0.56 -0.65,0.76 -0.21,0.2 -0.42,0.3 -0.61,0.32 -0.29,0.02 -0.51,-0.09 -0.66,-0.32 -0.15,-0.23 -0.24,-0.56 -0.27,-0.98 -0.03,-0.42 -0.02,-0.91 0.05,-1.48 0.06,-0.56 0.16,-1.16 0.28,-1.8 0.13,-0.64 0.28,-1.3 0.46,-1.99 0.17,-0.68 0.36,-1.35 0.55,-1.99 0.19,-0.65 0.38,-1.26 0.57,-1.84 0.2,-0.59 0.37,-1.1 0.53,-1.54 0.16,-0.45 0.29,-0.8 0.4,-1.07 0.11,-0.26 0.18,-0.41 0.21,-0.42zm3.26 5.52c0.26,-0.04 0.47,-0.03 0.64,0.02 0.16,0.06 0.29,0.13 0.38,0.23 0.09,0.11 0.16,0.23 0.19,0.37 0.03,0.15 0.04,0.29 0.04,0.42 0,0.14 -0.01,0.27 -0.03,0.39 -0.03,0.12 -0.04,0.21 -0.06,0.27 -0.17,0.51 -0.4,0.92 -0.71,1.23 -0.3,0.3 -0.62,0.54 -0.95,0.71 -0.33,0.17 -0.65,0.28 -0.95,0.34 -0.3,0.06 -0.54,0.1 -0.71,0.12 -0.04,0.33 -0.05,0.64 -0.04,0.93 0.01,0.29 0.06,0.54 0.14,0.75 0.08,0.21 0.19,0.37 0.33,0.48 0.15,0.11 0.33,0.15 0.54,0.11 0.23,-0.04 0.47,-0.19 0.74,-0.44 0.28,-0.26 0.56,-0.57 0.84,-0.95 0.29,-0.38 0.58,-0.78 0.86,-1.22 0.28,-0.44 0.54,-0.87 0.78,-1.28 0.24,-0.41 0.45,-0.78 0.63,-1.12 0.17,-0.33 0.3,-0.57 0.38,-0.72 0.01,-0.04 0.05,-0.06 0.1,-0.08 0.05,-0.02 0.1,-0.02 0.15,-0.01 0.05,0 0.09,0.02 0.11,0.05 0.03,0.03 0.03,0.07 0,0.13 -0.03,0.04 -0.09,0.17 -0.19,0.37 -0.1,0.21 -0.23,0.46 -0.39,0.77 -0.16,0.3 -0.34,0.64 -0.55,1.02 -0.22,0.38 -0.44,0.77 -0.69,1.16 -0.24,0.39 -0.49,0.77 -0.76,1.14 -0.26,0.37 -0.52,0.71 -0.79,1 -0.27,0.3 -0.54,0.54 -0.8,0.73 -0.27,0.19 -0.52,0.29 -0.76,0.31 -0.42,0.03 -0.76,-0.04 -1.02,-0.22 -0.27,-0.17 -0.46,-0.42 -0.59,-0.73 -0.13,-0.32 -0.19,-0.68 -0.19,-1.1 0,-0.41 0.05,-0.84 0.16,-1.29 0.1,-0.44 0.25,-0.88 0.45,-1.32 0.2,-0.44 0.44,-0.84 0.71,-1.21 0.28,-0.36 0.59,-0.66 0.92,-0.91 0.34,-0.25 0.7,-0.4 1.09,-0.45zm-0.04 0.42c-0.25,0.07 -0.49,0.21 -0.72,0.42 -0.22,0.22 -0.42,0.48 -0.6,0.79 -0.18,0.31 -0.33,0.65 -0.46,1.01 -0.13,0.37 -0.23,0.74 -0.29,1.12 0.11,-0.02 0.27,-0.04 0.48,-0.09 0.21,-0.04 0.43,-0.13 0.66,-0.27 0.24,-0.14 0.47,-0.33 0.68,-0.58 0.22,-0.25 0.39,-0.58 0.53,-1 0.1,-0.34 0.15,-0.6 0.16,-0.8 0,-0.19 -0.02,-0.33 -0.06,-0.43 -0.04,-0.09 -0.1,-0.15 -0.18,-0.16 -0.08,-0.02 -0.14,-0.02 -0.2,-0.01zm3.34 -1.25c0.07,-0.04 0.17,-0.07 0.28,-0.09 0.11,-0.02 0.22,-0.02 0.33,0 0.1,0.01 0.2,0.03 0.28,0.06 0.08,0.04 0.12,0.08 0.12,0.12 0,0.03 -0.04,0.15 -0.12,0.38 -0.08,0.23 -0.18,0.52 -0.3,0.88 -0.12,0.36 -0.25,0.76 -0.39,1.21 -0.14,0.44 -0.27,0.89 -0.4,1.35 -0.13,0.45 -0.24,0.9 -0.34,1.33 -0.09,0.43 -0.15,0.82 -0.18,1.15 -0.03,0.33 -0.01,0.59 0.05,0.77 0.06,0.19 0.18,0.27 0.36,0.24 0.2,-0.04 0.42,-0.19 0.65,-0.45 0.24,-0.26 0.48,-0.58 0.74,-0.96 0.25,-0.39 0.51,-0.81 0.76,-1.28 0.25,-0.47 0.49,-0.93 0.71,-1.38 0.22,-0.45 0.43,-0.87 0.62,-1.25 0.19,-0.39 0.34,-0.7 0.46,-0.92 0.05,-0.1 0.11,-0.14 0.2,-0.14 0.09,0.01 0.13,0.06 0.12,0.15 0,0.03 -0.04,0.14 -0.11,0.33 -0.08,0.2 -0.18,0.45 -0.31,0.76 -0.13,0.31 -0.29,0.65 -0.47,1.04 -0.18,0.39 -0.38,0.79 -0.59,1.2 -0.22,0.41 -0.45,0.81 -0.69,1.2 -0.24,0.39 -0.49,0.75 -0.74,1.06 -0.24,0.31 -0.49,0.57 -0.75,0.77 -0.25,0.21 -0.49,0.33 -0.73,0.36 -0.37,0.05 -0.65,-0.02 -0.84,-0.21 -0.19,-0.19 -0.32,-0.46 -0.38,-0.82 -0.06,-0.35 -0.06,-0.76 -0.01,-1.23 0.04,-0.47 0.12,-0.95 0.23,-1.45 0.11,-0.5 0.24,-1 0.39,-1.48 0.15,-0.49 0.3,-0.93 0.44,-1.32 0.14,-0.4 0.27,-0.72 0.38,-0.97 0.12,-0.25 0.19,-0.39 0.23,-0.41zm1.64 -3.26c0.14,0 0.24,0.03 0.31,0.09 0.07,0.05 0.13,0.12 0.16,0.2 0.03,0.07 0.04,0.15 0.03,0.24 0,0.09 -0.02,0.17 -0.03,0.25 -0.05,0.18 -0.12,0.34 -0.2,0.47 -0.08,0.13 -0.17,0.23 -0.27,0.3 -0.1,0.08 -0.2,0.13 -0.3,0.15 -0.1,0.03 -0.19,0.04 -0.27,0.03 -0.11,-0.01 -0.2,-0.05 -0.25,-0.13 -0.05,-0.07 -0.08,-0.16 -0.09,-0.25 -0.02,-0.1 -0.01,-0.2 0.01,-0.3 0.02,-0.11 0.05,-0.21 0.09,-0.3 0.05,-0.13 0.12,-0.25 0.21,-0.35 0.08,-0.1 0.16,-0.18 0.25,-0.24 0.08,-0.06 0.16,-0.1 0.22,-0.13 0.06,-0.03 0.11,-0.04 0.13,-0.03z"/>
    <path class="fil3" d="M97.05 36.78c0.14,-0.03 0.25,-0.01 0.35,0.04 0.09,0.06 0.16,0.13 0.22,0.23 0.05,0.09 0.09,0.2 0.1,0.31 0.02,0.11 0.02,0.22 -0.01,0.32 -0.05,0.22 -0.13,0.44 -0.22,0.66 -0.1,0.22 -0.2,0.43 -0.3,0.64 -0.11,0.2 -0.21,0.38 -0.32,0.55 -0.1,0.17 -0.18,0.3 -0.25,0.41 0.13,0.07 0.28,0.11 0.45,0.13 0.16,0.02 0.33,0.02 0.51,-0.01 0.17,-0.02 0.33,-0.07 0.49,-0.14 0.15,-0.06 0.29,-0.15 0.4,-0.26 0.05,-0.05 0.11,-0.06 0.17,-0.03 0.06,0.04 0.11,0.09 0.16,0.16 0.04,0.07 0.07,0.15 0.07,0.24 0.01,0.09 -0.01,0.17 -0.06,0.23 -0.02,0.03 -0.08,0.14 -0.18,0.31 -0.09,0.17 -0.2,0.38 -0.33,0.63 -0.13,0.25 -0.26,0.53 -0.41,0.84 -0.14,0.31 -0.28,0.62 -0.4,0.93 -0.13,0.32 -0.24,0.62 -0.34,0.91 -0.1,0.3 -0.16,0.55 -0.19,0.78 -0.03,0.22 -0.03,0.39 0.02,0.51 0.05,0.13 0.15,0.17 0.31,0.14 0.08,-0.02 0.19,-0.1 0.33,-0.25 0.14,-0.16 0.3,-0.36 0.49,-0.61 0.18,-0.25 0.38,-0.53 0.59,-0.85 0.21,-0.32 0.42,-0.64 0.63,-0.97 0.22,-0.34 0.42,-0.66 0.62,-0.99 0.19,-0.32 0.37,-0.61 0.53,-0.87 0.16,-0.26 0.29,-0.48 0.4,-0.65 0.11,-0.18 0.17,-0.28 0.2,-0.32 0.05,-0.07 0.11,-0.13 0.17,-0.15 0.06,-0.03 0.11,-0.04 0.16,-0.03 0.05,0.01 0.08,0.03 0.1,0.07 0.02,0.05 0.02,0.1 0,0.15 -0.02,0.05 -0.11,0.23 -0.28,0.55 -0.17,0.32 -0.38,0.71 -0.65,1.16 -0.27,0.46 -0.56,0.95 -0.89,1.48 -0.33,0.52 -0.66,1 -0.98,1.44 -0.33,0.43 -0.64,0.79 -0.94,1.07 -0.3,0.29 -0.55,0.42 -0.75,0.4 -0.3,-0.03 -0.53,-0.12 -0.67,-0.29 -0.15,-0.16 -0.23,-0.37 -0.27,-0.62 -0.03,-0.25 -0.02,-0.52 0.04,-0.83 0.06,-0.3 0.14,-0.61 0.25,-0.93 0.26,-0.73 0.64,-1.56 1.16,-2.47 -0.28,0.1 -0.57,0.14 -0.85,0.12 -0.29,-0.02 -0.54,-0.11 -0.75,-0.27 -0.22,-0.15 -0.38,-0.38 -0.48,-0.67 -0.1,-0.28 -0.12,-0.65 -0.05,-1.09 0.05,-0.28 0.15,-0.55 0.3,-0.8 0.14,-0.25 0.31,-0.47 0.48,-0.66 0.18,-0.2 0.35,-0.35 0.51,-0.46 0.16,-0.11 0.28,-0.18 0.36,-0.19zm-0.86 2.25c-0.02,0.14 -0.02,0.26 0,0.38 0.03,0.11 0.07,0.21 0.13,0.29 0.08,-0.18 0.19,-0.4 0.31,-0.67 0.12,-0.26 0.23,-0.52 0.33,-0.76 0.1,-0.24 0.17,-0.45 0.21,-0.62 0.04,-0.17 0.02,-0.25 -0.07,-0.24 -0.05,0 -0.11,0.05 -0.2,0.14 -0.09,0.09 -0.18,0.22 -0.28,0.36 -0.09,0.15 -0.18,0.32 -0.26,0.52 -0.08,0.19 -0.14,0.39 -0.17,0.6zm12.43 -0.71c-0.19,0.28 -0.41,0.66 -0.66,1.13 -0.25,0.48 -0.51,0.99 -0.79,1.53 -0.28,0.55 -0.57,1.11 -0.87,1.68 -0.3,0.58 -0.6,1.11 -0.91,1.6 -0.31,0.49 -0.61,0.91 -0.91,1.26 -0.31,0.35 -0.59,0.58 -0.87,0.68 -0.16,0.04 -0.29,-0.01 -0.39,-0.13 -0.1,-0.12 -0.16,-0.3 -0.2,-0.52 -0.04,-0.22 -0.06,-0.49 -0.05,-0.8 0.01,-0.31 0.03,-0.65 0.07,-1.02 -0.1,0.17 -0.23,0.34 -0.37,0.53 -0.14,0.18 -0.3,0.36 -0.47,0.52 -0.17,0.17 -0.34,0.31 -0.52,0.43 -0.18,0.13 -0.35,0.2 -0.52,0.24 -0.22,0.04 -0.45,0.04 -0.72,0 -0.26,-0.04 -0.49,-0.15 -0.7,-0.35 -0.2,-0.19 -0.35,-0.47 -0.44,-0.85 -0.09,-0.38 -0.07,-0.88 0.05,-1.51 0.02,-0.09 0.06,-0.24 0.13,-0.46 0.08,-0.23 0.18,-0.48 0.3,-0.77 0.13,-0.28 0.29,-0.58 0.47,-0.9 0.18,-0.32 0.4,-0.61 0.65,-0.89 0.25,-0.28 0.54,-0.52 0.85,-0.71 0.32,-0.2 0.67,-0.33 1.05,-0.39 0.35,-0.05 0.63,-0.02 0.83,0.08 0.21,0.1 0.36,0.24 0.46,0.42 0.06,-0.16 0.11,-0.29 0.15,-0.38 0.05,-0.09 0.08,-0.14 0.1,-0.15 0.09,-0.02 0.19,-0.02 0.29,-0.01 0.1,0.01 0.19,0.03 0.27,0.06 0.09,0.04 0.15,0.08 0.2,0.13 0.05,0.06 0.07,0.1 0.06,0.15 -0.01,0.03 -0.04,0.14 -0.09,0.34 -0.05,0.19 -0.12,0.44 -0.2,0.75 -0.09,0.3 -0.18,0.64 -0.28,1.02 -0.1,0.38 -0.2,0.76 -0.3,1.15 -0.1,0.4 -0.19,0.78 -0.27,1.16 -0.08,0.37 -0.14,0.71 -0.19,1 -0.05,0.3 -0.07,0.54 -0.07,0.72 0,0.19 0.03,0.29 0.09,0.3 0.11,0.03 0.25,-0.08 0.42,-0.31 0.17,-0.24 0.37,-0.55 0.6,-0.94 0.22,-0.39 0.47,-0.84 0.74,-1.35 0.26,-0.51 0.54,-1.03 0.84,-1.56 0.29,-0.53 0.59,-1.06 0.89,-1.57 0.31,-0.51 0.62,-0.97 0.92,-1.37 0.3,-0.41 0.6,-0.73 0.88,-0.97 0.29,-0.25 0.56,-0.37 0.82,-0.36 0.2,0 0.37,0.08 0.5,0.22 0.14,0.14 0.24,0.32 0.32,0.55 0.07,0.23 0.13,0.48 0.16,0.76 0.03,0.28 0.05,0.56 0.05,0.84 0,0.27 -0.01,0.53 -0.03,0.77 -0.01,0.23 -0.03,0.42 -0.06,0.57 -0.14,0.89 -0.37,1.74 -0.7,2.55 -0.33,0.81 -0.73,1.55 -1.2,2.23 -0.48,0.69 -1.02,1.3 -1.63,1.84 -0.61,0.54 -1.27,1 -1.97,1.37 -0.7,0.37 -1.45,0.64 -2.23,0.83 -0.79,0.18 -1.59,0.25 -2.42,0.2 -0.2,-0.01 -0.39,-0.03 -0.59,-0.05 -0.19,-0.02 -0.38,-0.05 -0.57,-0.08 -0.56,-0.09 -1.11,-0.21 -1.64,-0.37 -0.53,-0.15 -1.06,-0.32 -1.59,-0.5 -0.35,-0.12 -0.7,-0.26 -1.05,-0.4 -0.34,-0.15 -0.71,-0.27 -1.08,-0.38 -0.23,-0.06 -0.43,-0.12 -0.6,-0.16 -0.17,-0.05 -0.33,-0.09 -0.49,-0.13 -0.16,-0.04 -0.33,-0.08 -0.5,-0.11 -0.18,-0.04 -0.39,-0.07 -0.64,-0.1 -1.54,-0.18 -3.08,-0.04 -4.63,0.41 -1.55,0.46 -3.1,1.23 -4.66,2.3 0.55,-0.39 1.11,-0.76 1.66,-1.1 0.56,-0.33 1.14,-0.63 1.77,-0.87 0.58,-0.24 1.18,-0.43 1.8,-0.58 0.63,-0.14 1.24,-0.24 1.85,-0.3 0.61,-0.05 1.21,-0.06 1.79,-0.03 0.58,0.03 1.12,0.12 1.62,0.25 0.21,0.06 0.41,0.11 0.62,0.17 0.2,0.05 0.4,0.11 0.6,0.17 0.43,0.15 0.86,0.3 1.28,0.45 0.42,0.16 0.85,0.3 1.28,0.44 0.43,0.14 0.87,0.27 1.31,0.39 0.45,0.11 0.9,0.2 1.37,0.28 0.37,0.05 0.74,0.08 1.12,0.1 0.37,0.03 0.76,0.03 1.15,0 0.39,-0.02 0.78,-0.08 1.18,-0.16 0.39,-0.08 0.79,-0.2 1.2,-0.35 0.72,-0.28 1.39,-0.64 2,-1.08 0.61,-0.45 1.17,-0.95 1.66,-1.51 0.5,-0.56 0.93,-1.17 1.29,-1.83 0.37,-0.66 0.67,-1.35 0.9,-2.06 0.12,-0.37 0.23,-0.76 0.33,-1.17 0.09,-0.41 0.16,-0.83 0.2,-1.24 0.05,-0.41 0.06,-0.81 0.05,-1.2 -0.02,-0.39 -0.08,-0.74 -0.18,-1.06 -0.08,-0.23 -0.19,-0.38 -0.33,-0.45 -0.14,-0.08 -0.3,-0.09 -0.47,-0.03 -0.18,0.06 -0.37,0.18 -0.56,0.35 -0.2,0.18 -0.39,0.39 -0.58,0.65zm-7.46 6.65c0.25,-0.03 0.48,-0.15 0.71,-0.38 0.22,-0.23 0.42,-0.48 0.61,-0.77 0.18,-0.28 0.34,-0.57 0.48,-0.85 0.13,-0.28 0.24,-0.49 0.31,-0.63 0.08,-0.44 0.18,-0.86 0.28,-1.27 0.1,-0.41 0.2,-0.78 0.29,-1.13 0.03,-0.3 -0.05,-0.55 -0.21,-0.74 -0.17,-0.19 -0.46,-0.25 -0.87,-0.18 -0.2,0.04 -0.43,0.19 -0.67,0.44 -0.24,0.26 -0.46,0.56 -0.68,0.91 -0.21,0.35 -0.41,0.72 -0.57,1.12 -0.17,0.39 -0.28,0.75 -0.34,1.07 -0.01,0.06 -0.02,0.17 -0.05,0.32 -0.02,0.15 -0.04,0.31 -0.05,0.5 -0.01,0.18 -0.01,0.37 -0.01,0.57 0.01,0.19 0.04,0.37 0.09,0.53 0.06,0.16 0.14,0.28 0.24,0.38 0.11,0.09 0.26,0.13 0.44,0.11z"/>
   </g>
   <g>
    <path class="fil4" d="M38.15 42.58l2.55 -1.38c0.35,-0.19 0.74,-0.35 1.15,-0.34 0.82,0 1.37,0.66 1.37,1.46 0,0.2 -0.04,0.39 -0.1,0.58 -0.04,0.14 -0.1,0.27 -0.16,0.41 -0.06,0.09 -0.11,0.19 -0.17,0.28 -0.06,0.11 -0.13,0.23 -0.2,0.34l-0.3 0.49c0.1,0.01 0.2,0.04 0.29,0.07 0.58,0.22 0.9,0.76 0.9,1.36 0,0.4 -0.13,0.76 -0.35,1.08 -0.22,0.31 -0.51,0.54 -0.84,0.72l-3.24 1.75c-0.33,0.18 -0.7,0.31 -1.08,0.28 -0.01,0.03 -0.03,0.05 -0.04,0.08 -0.22,0.35 -0.51,0.63 -0.87,0.83 -0.43,0.23 -0.9,0.3 -1.34,0.14 -0.04,0.11 -0.1,0.21 -0.16,0.31 -0.21,0.35 -0.49,0.62 -0.84,0.81 -0.3,0.16 -0.63,0.24 -0.95,0.22 -0.12,0.13 -0.24,0.25 -0.38,0.37 -0.26,0.22 -0.54,0.41 -0.84,0.58 -0.41,0.21 -0.85,0.37 -1.32,0.38 -0.27,0 -0.53,-0.04 -0.77,-0.14l0 1.17c0,0.89 -0.37,1.69 -1.18,2.13 -0.68,0.37 -1.5,0.36 -1.98,-0.33 -0.06,-0.1 -0.11,-0.19 -0.15,-0.29 -0.52,0.27 -1.09,0.44 -1.67,0.38 -0.67,-0.07 -1.23,-0.43 -1.59,-0.99 -0.34,-0.53 -0.44,-1.17 -0.44,-1.79 0,-0.64 0.11,-1.27 0.34,-1.87 0.22,-0.57 0.53,-1.11 0.94,-1.57 0.38,-0.45 0.84,-0.83 1.36,-1.11 0.4,-0.21 0.83,-0.37 1.28,-0.4 0.2,-0.3 0.47,-0.55 0.8,-0.73 0.41,-0.22 0.87,-0.3 1.3,-0.15 0.04,-0.09 0.09,-0.18 0.15,-0.27 0.21,-0.35 0.51,-0.64 0.87,-0.83 0.49,-0.27 1.05,-0.33 1.55,-0.06 0.12,0.07 0.23,0.15 0.32,0.23 0.03,-0.35 0.14,-0.7 0.33,-1.01 0.22,-0.35 0.51,-0.63 0.87,-0.82 0.43,-0.23 0.91,-0.31 1.35,-0.15 0.01,-0.03 0.03,-0.06 0.04,-0.09 -0.14,-0.24 -0.22,-0.53 -0.22,-0.84 0,-0.43 0.15,-0.83 0.39,-1.18 0.22,-0.31 0.5,-0.57 0.83,-0.75 0.4,-0.22 0.85,-0.3 1.3,-0.17 0.43,0.13 0.74,0.43 0.9,0.81z"/>
   </g>
   <path class="fil5" d="M28.16 55.03l0 -1.68c-0.23,0.35 -0.47,0.66 -0.72,0.91 -0.25,0.26 -0.52,0.47 -0.83,0.63 -0.37,0.2 -0.71,0.29 -1.01,0.26 -0.31,-0.03 -0.54,-0.18 -0.72,-0.46 -0.17,-0.27 -0.26,-0.65 -0.26,-1.15 0,-0.51 0.09,-0.99 0.26,-1.45 0.18,-0.46 0.42,-0.86 0.73,-1.22 0.31,-0.36 0.66,-0.64 1.04,-0.84 0.32,-0.18 0.61,-0.27 0.86,-0.27 0.25,0 0.47,0.08 0.65,0.26l0 -0.15c0,-0.22 0.05,-0.41 0.16,-0.58 0.1,-0.18 0.24,-0.31 0.41,-0.4 0.16,-0.09 0.3,-0.1 0.4,-0.05 0.11,0.06 0.16,0.2 0.16,0.42l0 5.17c0,0.53 -0.19,0.89 -0.56,1.1 -0.24,0.12 -0.39,0.13 -0.46,0.03 -0.07,-0.1 -0.11,-0.28 -0.11,-0.53zm-2.34 -2.15c0,0.33 0.05,0.57 0.16,0.75 0.1,0.18 0.24,0.27 0.41,0.29 0.17,0.02 0.35,-0.02 0.54,-0.12 0.22,-0.12 0.41,-0.28 0.59,-0.49 0.18,-0.21 0.32,-0.45 0.43,-0.74 0.11,-0.29 0.16,-0.6 0.16,-0.94 0,-0.24 -0.03,-0.44 -0.09,-0.6 -0.07,-0.16 -0.15,-0.27 -0.26,-0.34 -0.11,-0.07 -0.23,-0.1 -0.37,-0.08 -0.14,0.01 -0.29,0.06 -0.45,0.14 -0.32,0.18 -0.59,0.45 -0.8,0.83 -0.21,0.38 -0.32,0.82 -0.32,1.3zm7.77 -2.43l0 -0.15c-0.14,0.25 -0.29,0.49 -0.45,0.7 -0.16,0.2 -0.33,0.39 -0.51,0.55 -0.19,0.16 -0.4,0.3 -0.64,0.43 -0.29,0.16 -0.55,0.24 -0.78,0.24 -0.23,0.01 -0.41,-0.06 -0.53,-0.2 -0.15,-0.18 -0.22,-0.5 -0.22,-0.98l0 -2.37c0,-0.24 0.05,-0.44 0.16,-0.62 0.11,-0.18 0.25,-0.31 0.43,-0.41 0.18,-0.1 0.32,-0.12 0.43,-0.06 0.11,0.06 0.17,0.21 0.17,0.45l0 1.91c0,0.28 0.02,0.5 0.07,0.66 0.05,0.17 0.13,0.27 0.25,0.31 0.12,0.04 0.29,0 0.49,-0.11 0.2,-0.11 0.39,-0.27 0.57,-0.48 0.18,-0.22 0.31,-0.45 0.39,-0.68 0.07,-0.21 0.1,-0.6 0.1,-1.17l0 -1.45c0,-0.24 0.06,-0.45 0.17,-0.63 0.11,-0.18 0.26,-0.31 0.43,-0.41 0.18,-0.1 0.32,-0.11 0.43,-0.05 0.11,0.05 0.16,0.2 0.16,0.44l0 3.47c0,0.22 -0.05,0.42 -0.15,0.59 -0.11,0.17 -0.24,0.3 -0.4,0.39 -0.17,0.09 -0.3,0.1 -0.41,0.04 -0.1,-0.06 -0.16,-0.2 -0.16,-0.41zm3.51 -5.4l0 3.45c0,0.24 -0.06,0.46 -0.17,0.64 -0.11,0.18 -0.26,0.32 -0.43,0.42 -0.18,0.09 -0.32,0.1 -0.43,0.04 -0.11,-0.07 -0.16,-0.22 -0.16,-0.45l0 -3.42c0,-0.24 0.05,-0.45 0.16,-0.62 0.11,-0.18 0.25,-0.32 0.43,-0.41 0.17,-0.1 0.32,-0.12 0.43,-0.06 0.11,0.06 0.17,0.2 0.17,0.41zm-0.59 -0.92c-0.17,0.09 -0.31,0.12 -0.43,0.08 -0.11,-0.04 -0.17,-0.15 -0.17,-0.34 0,-0.16 0.06,-0.33 0.18,-0.51 0.12,-0.17 0.26,-0.3 0.42,-0.39 0.15,-0.08 0.29,-0.11 0.41,-0.07 0.12,0.03 0.18,0.14 0.18,0.33 0,0.18 -0.06,0.36 -0.18,0.52 -0.11,0.17 -0.25,0.3 -0.41,0.38zm5.07 -0.81l-2.19 3.63 2.34 -1.26c0.19,-0.1 0.34,-0.14 0.43,-0.1 0.1,0.04 0.15,0.13 0.15,0.26 0,0.14 -0.05,0.27 -0.14,0.41 -0.1,0.14 -0.24,0.26 -0.44,0.36l-3.23 1.75c-0.23,0.12 -0.4,0.16 -0.51,0.13 -0.12,-0.04 -0.17,-0.15 -0.17,-0.32 0,-0.1 0.04,-0.23 0.11,-0.37 0.08,-0.15 0.25,-0.43 0.49,-0.84 0.27,-0.43 0.51,-0.83 0.72,-1.18 0.22,-0.35 0.41,-0.68 0.6,-0.98 0.18,-0.31 0.33,-0.57 0.46,-0.77 0.12,-0.21 0.21,-0.39 0.29,-0.53l-1.78 0.96c-0.24,0.13 -0.43,0.21 -0.56,0.23 -0.12,0.03 -0.18,-0.05 -0.18,-0.24 0,-0.13 0.04,-0.27 0.14,-0.4 0.09,-0.14 0.23,-0.25 0.4,-0.34l2.75 -1.49c0.25,-0.13 0.45,-0.2 0.58,-0.2 0.14,0 0.21,0.1 0.21,0.29 0,0.06 -0.02,0.14 -0.04,0.22 -0.03,0.08 -0.06,0.15 -0.09,0.22 -0.03,0.06 -0.08,0.13 -0.13,0.23 -0.06,0.09 -0.13,0.2 -0.21,0.33z"/>
  </g>
 </g>
</svg>
